<?xml version="1.0" encoding="utf-8"?>
<!-- Generator: Adobe Illustrator 16.0.0, SVG Export Plug-In . SVG Version: 6.00 Build 0)  -->
<!DOCTYPE svg PUBLIC "-//W3C//DTD SVG 1.1//EN" "http://www.w3.org/Graphics/SVG/1.1/DTD/svg11.dtd">
<svg version="1.1" id="图层_2" xmlns="http://www.w3.org/2000/svg" xmlns:xlink="http://www.w3.org/1999/xlink" x="0px" y="0px"
	 width="200.348px" height="124.106px" viewBox="0 0 200.348 124.106" enable-background="new 0 0 200.348 124.106"
	 xml:space="preserve">
<g>
	<path fill-rule="evenodd" clip-rule="evenodd" fill="#FFFFFF" d="M42.393,45.523h113.032c1.449,0,2.636,1.188,2.636,2.637v73.31
		c0,1.449-1.188,2.637-2.636,2.637H42.393c-1.449,0-2.636-1.188-2.636-2.637V48.16C39.757,46.709,40.943,45.523,42.393,45.523z"/>
	<path fill-rule="evenodd" clip-rule="evenodd" fill="#B3B3B3" d="M47.526,45.523h6.553v3.743c0,0.339-0.277,0.616-0.616,0.616
		h-5.322c-0.339,0-0.616-0.277-0.616-0.616V45.523z"/>
	<path fill-rule="evenodd" clip-rule="evenodd" fill="#B3B3B3" d="M143.739,45.523h6.553v3.743c0,0.339-0.276,0.616-0.615,0.616
		h-5.322c-0.339,0-0.615-0.277-0.615-0.616V45.523z"/>
	<path fill-rule="evenodd" clip-rule="evenodd" fill="#FFFFFF" d="M48.457,42.126h4.691c0.299,0,0.543,0.245,0.543,0.544v5.544
		c0,0.299-0.244,0.543-0.543,0.543h-4.691c-0.299,0-0.543-0.244-0.543-0.543V42.67C47.914,42.372,48.158,42.126,48.457,42.126z"/>
	<path fill-rule="evenodd" clip-rule="evenodd" fill="#FFFFFF" d="M144.669,42.126h4.691c0.299,0,0.543,0.245,0.543,0.544v5.544
		c0,0.299-0.244,0.543-0.543,0.543h-4.691c-0.299,0-0.543-0.244-0.543-0.543V42.67C144.126,42.372,144.371,42.126,144.669,42.126z"
		/>
	<path fill-rule="evenodd" clip-rule="evenodd" fill="#B3B3B3" d="M146.548,55.997h3.651c0.415,0,0.754,0.339,0.754,0.754v2.713
		c0,0.415-0.339,0.754-0.754,0.754h-3.651c-0.414,0-0.754-0.339-0.754-0.754V56.75C145.794,56.335,146.134,55.997,146.548,55.997z"
		/>
	<path fill-rule="evenodd" clip-rule="evenodd" fill="#B3B3B3" d="M146.716,61.172h3.315c0.507,0,0.922,0.415,0.922,0.921v3.675
		c0,0.507-0.415,0.922-0.922,0.922h-3.315c-0.507,0-0.922-0.415-0.922-0.922v-3.675C145.794,61.587,146.209,61.172,146.716,61.172z"
		/>
	<path fill-rule="evenodd" clip-rule="evenodd" fill="#B3B3B3" d="M146.716,67.644h3.315c0.507,0,0.922,0.415,0.922,0.922v3.674
		c0,0.507-0.415,0.922-0.922,0.922h-3.315c-0.507,0-0.922-0.415-0.922-0.922v-3.674C145.794,68.059,146.209,67.644,146.716,67.644z"
		/>
	<path fill-rule="evenodd" clip-rule="evenodd" fill="#B3B3B3" d="M146.716,74.116h3.315c0.507,0,0.922,0.415,0.922,0.922v3.673
		c0,0.508-0.415,0.922-0.922,0.922h-3.315c-0.507,0-0.922-0.414-0.922-0.922v-3.673C145.794,74.531,146.209,74.116,146.716,74.116z"
		/>
	<path fill-rule="evenodd" clip-rule="evenodd" fill="#B3B3B3" d="M146.716,80.588h3.315c0.507,0,0.922,0.414,0.922,0.922v3.673
		c0,0.508-0.415,0.922-0.922,0.922h-3.315c-0.507,0-0.922-0.414-0.922-0.922V81.51C145.794,81.002,146.209,80.588,146.716,80.588z"
		/>
	<path fill-rule="evenodd" clip-rule="evenodd" fill="#B3B3B3" d="M146.716,87.058h3.315c0.507,0,0.922,0.416,0.922,0.924v3.674
		c0,0.506-0.415,0.922-0.922,0.922h-3.315c-0.507,0-0.922-0.416-0.922-0.922v-3.674C145.794,87.474,146.209,87.058,146.716,87.058z"
		/>
	<path fill-rule="evenodd" clip-rule="evenodd" fill="#B3B3B3" d="M140.1,55.997h3.651c0.414,0,0.754,0.339,0.754,0.754v2.713
		c0,0.415-0.34,0.754-0.754,0.754H140.1c-0.415,0-0.754-0.339-0.754-0.754V56.75C139.346,56.335,139.685,55.997,140.1,55.997z"/>
	<path fill-rule="evenodd" clip-rule="evenodd" fill="#B3B3B3" d="M134.375,61.172h9.145c0.541,0,0.985,0.443,0.985,0.985v3.546
		c0,0.542-0.444,0.986-0.985,0.986h-9.145c-0.541,0-0.985-0.444-0.985-0.986v-3.546C133.39,61.616,133.834,61.172,134.375,61.172z"
		/>
	<path fill-rule="evenodd" clip-rule="evenodd" fill="#B3B3B3" d="M138.573,67.644h4.947c0.542,0,0.985,0.443,0.985,0.985v3.547
		c0,0.541-0.443,0.985-0.985,0.985h-4.947c-0.542,0-0.985-0.444-0.985-0.985v-3.547C137.587,68.087,138.031,67.644,138.573,67.644z"
		/>
	<path fill-rule="evenodd" clip-rule="evenodd" fill="#B3B3B3" d="M133.648,74.116h9.872c0.542,0,0.985,0.444,0.985,0.985v3.547
		c0,0.541-0.443,0.984-0.985,0.984h-9.872c-0.541,0-0.985-0.443-0.985-0.984v-3.547C132.663,74.56,133.107,74.116,133.648,74.116z"
		/>
	<path fill-rule="evenodd" clip-rule="evenodd" fill="#B3B3B3" d="M140.268,80.588h3.315c0.507,0,0.922,0.414,0.922,0.922v3.673
		c0,0.508-0.415,0.922-0.922,0.922h-3.315c-0.507,0-0.922-0.414-0.922-0.922V81.51C139.346,81.002,139.761,80.588,140.268,80.588z"
		/>
	<path fill-rule="evenodd" clip-rule="evenodd" fill="#B3B3B3" d="M140.268,87.058h3.315c0.507,0,0.922,0.416,0.922,0.924v3.674
		c0,0.506-0.415,0.922-0.922,0.922h-3.315c-0.507,0-0.922-0.416-0.922-0.922v-3.674C139.346,87.474,139.761,87.058,140.268,87.058z"
		/>
	<path fill-rule="evenodd" clip-rule="evenodd" fill="#B3B3B3" d="M134.144,55.997h3.158c0.415,0,0.755,0.339,0.755,0.754v2.713
		c0,0.415-0.34,0.754-0.755,0.754h-3.158c-0.414,0-0.754-0.339-0.754-0.754V56.75C133.39,56.335,133.73,55.997,134.144,55.997z"/>
	<path fill-rule="evenodd" clip-rule="evenodd" fill="#B3B3B3" d="M128.09,55.997h3.158c0.415,0,0.755,0.339,0.755,0.754v2.713
		c0,0.415-0.34,0.754-0.755,0.754h-3.158c-0.414,0-0.754-0.339-0.754-0.754V56.75C127.336,56.335,127.676,55.997,128.09,55.997z"/>
	<path fill-rule="evenodd" clip-rule="evenodd" fill="#B3B3B3" d="M122.038,55.997h3.157c0.415,0,0.755,0.339,0.755,0.754v2.713
		c0,0.415-0.34,0.754-0.755,0.754h-3.157c-0.415,0-0.755-0.339-0.755-0.754V56.75C121.283,56.335,121.623,55.997,122.038,55.997z"/>
	<path fill-rule="evenodd" clip-rule="evenodd" fill="#B3B3B3" d="M115.983,55.997h3.159c0.415,0,0.754,0.339,0.754,0.754v2.713
		c0,0.415-0.339,0.754-0.754,0.754h-3.159c-0.414,0-0.754-0.339-0.754-0.754V56.75C115.229,56.335,115.569,55.997,115.983,55.997z"
		/>
	<path fill-rule="evenodd" clip-rule="evenodd" fill="#B3B3B3" d="M109.93,55.997h3.158c0.415,0,0.754,0.339,0.754,0.754v2.713
		c0,0.415-0.339,0.754-0.754,0.754h-3.158c-0.415,0-0.754-0.339-0.754-0.754V56.75C109.176,56.335,109.515,55.997,109.93,55.997z"/>
	<path fill-rule="evenodd" clip-rule="evenodd" fill="#B3B3B3" d="M103.876,55.997h3.158c0.415,0,0.754,0.339,0.754,0.754v2.713
		c0,0.415-0.339,0.754-0.754,0.754h-3.158c-0.415,0-0.755-0.339-0.755-0.754V56.75C103.122,56.335,103.461,55.997,103.876,55.997z"
		/>
	<path fill-rule="evenodd" clip-rule="evenodd" fill="#B3B3B3" d="M97.823,55.997h3.158c0.415,0,0.754,0.339,0.754,0.754v2.713
		c0,0.415-0.339,0.754-0.754,0.754h-3.158c-0.415,0-0.754-0.339-0.754-0.754V56.75C97.069,56.335,97.408,55.997,97.823,55.997z"/>
	<path fill-rule="evenodd" clip-rule="evenodd" fill="#B3B3B3" d="M91.769,55.997h3.158c0.415,0,0.755,0.339,0.755,0.754v2.713
		c0,0.415-0.34,0.754-0.755,0.754h-3.158c-0.415,0-0.754-0.339-0.754-0.754V56.75C91.015,56.335,91.354,55.997,91.769,55.997z"/>
	<path fill-rule="evenodd" clip-rule="evenodd" fill="#B3B3B3" d="M85.715,55.997h3.158c0.415,0,0.754,0.339,0.754,0.754v2.713
		c0,0.415-0.339,0.754-0.754,0.754h-3.158c-0.415,0-0.754-0.339-0.754-0.754V56.75C84.961,56.335,85.3,55.997,85.715,55.997z"/>
	<path fill-rule="evenodd" clip-rule="evenodd" fill="#B3B3B3" d="M79.662,55.997h3.158c0.415,0,0.754,0.339,0.754,0.754v2.713
		c0,0.415-0.339,0.754-0.754,0.754h-3.158c-0.414,0-0.754-0.339-0.754-0.754V56.75C78.908,56.335,79.248,55.997,79.662,55.997z"/>
	<path fill-rule="evenodd" clip-rule="evenodd" fill="#B3B3B3" d="M73.609,55.997h3.158c0.414,0,0.754,0.339,0.754,0.754v2.713
		c0,0.415-0.34,0.754-0.754,0.754h-3.158c-0.416,0-0.754-0.339-0.754-0.754V56.75C72.855,56.335,73.193,55.997,73.609,55.997z"/>
	<path fill-rule="evenodd" clip-rule="evenodd" fill="#B3B3B3" d="M67.554,55.997h3.158c0.416,0,0.755,0.339,0.755,0.754v2.713
		c0,0.415-0.339,0.754-0.755,0.754h-3.158c-0.414,0-0.754-0.339-0.754-0.754V56.75C66.8,56.335,67.14,55.997,67.554,55.997z"/>
	<path fill-rule="evenodd" clip-rule="evenodd" fill="#B3B3B3" d="M61.501,55.997h3.158c0.415,0,0.754,0.339,0.754,0.754v2.713
		c0,0.415-0.339,0.754-0.754,0.754h-3.158c-0.415,0-0.754-0.339-0.754-0.754V56.75C60.748,56.335,61.086,55.997,61.501,55.997z"/>
	<path fill-rule="evenodd" clip-rule="evenodd" fill="#B3B3B3" d="M55.448,55.997h3.158c0.415,0,0.754,0.339,0.754,0.754v2.713
		c0,0.415-0.339,0.754-0.754,0.754h-3.158c-0.415,0-0.755-0.339-0.755-0.754V56.75C54.693,56.335,55.033,55.997,55.448,55.997z"/>
	<path fill-rule="evenodd" clip-rule="evenodd" fill="#B3B3B3" d="M48.647,55.997h3.651c0.415,0,0.754,0.339,0.754,0.754v2.713
		c0,0.415-0.339,0.754-0.754,0.754h-3.651c-0.414,0-0.754-0.339-0.754-0.754V56.75C47.893,56.335,48.233,55.997,48.647,55.997z"/>
	<path fill-rule="evenodd" clip-rule="evenodd" fill="#B3B3B3" d="M127.844,61.172h3.254c0.497,0,0.904,0.406,0.904,0.904v3.709
		c0,0.497-0.407,0.904-0.904,0.904h-3.254c-0.497,0-0.904-0.407-0.904-0.904v-3.709C126.94,61.579,127.347,61.172,127.844,61.172z"
		/>
	<path fill-rule="evenodd" clip-rule="evenodd" fill="#B3B3B3" d="M121.277,61.172h3.254c0.497,0,0.904,0.406,0.904,0.904v3.709
		c0,0.497-0.407,0.904-0.904,0.904h-3.254c-0.498,0-0.904-0.407-0.904-0.904v-3.709C120.373,61.579,120.779,61.172,121.277,61.172z"
		/>
	<path fill-rule="evenodd" clip-rule="evenodd" fill="#B3B3B3" d="M114.708,61.172h3.254c0.498,0,0.904,0.406,0.904,0.904v3.709
		c0,0.497-0.406,0.904-0.904,0.904h-3.254c-0.498,0-0.904-0.407-0.904-0.904v-3.709C113.804,61.579,114.21,61.172,114.708,61.172z"
		/>
	<path fill-rule="evenodd" clip-rule="evenodd" fill="#B3B3B3" d="M108.141,61.172h3.254c0.497,0,0.904,0.406,0.904,0.904v3.709
		c0,0.497-0.407,0.904-0.904,0.904h-3.254c-0.498,0-0.904-0.407-0.904-0.904v-3.709C107.237,61.579,107.643,61.172,108.141,61.172z"
		/>
	<path fill-rule="evenodd" clip-rule="evenodd" fill="#B3B3B3" d="M101.573,61.172h3.254c0.498,0,0.904,0.406,0.904,0.904v3.709
		c0,0.497-0.406,0.904-0.904,0.904h-3.254c-0.497,0-0.904-0.407-0.904-0.904v-3.709C100.668,61.579,101.076,61.172,101.573,61.172z"
		/>
	<path fill-rule="evenodd" clip-rule="evenodd" fill="#B3B3B3" d="M95.005,61.172h3.254c0.497,0,0.904,0.406,0.904,0.904v3.709
		c0,0.497-0.407,0.904-0.904,0.904h-3.254c-0.497,0-0.904-0.407-0.904-0.904v-3.709C94.101,61.579,94.508,61.172,95.005,61.172z"/>
	<path fill-rule="evenodd" clip-rule="evenodd" fill="#B3B3B3" d="M88.437,61.172h3.254c0.498,0,0.904,0.406,0.904,0.904v3.709
		c0,0.497-0.406,0.904-0.904,0.904h-3.254c-0.497,0-0.904-0.407-0.904-0.904v-3.709C87.533,61.579,87.94,61.172,88.437,61.172z"/>
	<path fill-rule="evenodd" clip-rule="evenodd" fill="#B3B3B3" d="M81.87,61.172h3.253c0.498,0,0.905,0.406,0.905,0.904v3.709
		c0,0.497-0.407,0.904-0.905,0.904H81.87c-0.497,0-0.905-0.407-0.905-0.904v-3.709C80.964,61.579,81.373,61.172,81.87,61.172z"/>
	<path fill-rule="evenodd" clip-rule="evenodd" fill="#B3B3B3" d="M75.301,61.172h3.255c0.496,0,0.904,0.406,0.904,0.904v3.709
		c0,0.497-0.408,0.904-0.904,0.904h-3.255c-0.497,0-0.904-0.407-0.904-0.904v-3.709C74.397,61.579,74.804,61.172,75.301,61.172z"/>
	<path fill-rule="evenodd" clip-rule="evenodd" fill="#B3B3B3" d="M68.734,61.172h3.254c0.498,0,0.904,0.406,0.904,0.904v3.709
		c0,0.497-0.406,0.904-0.904,0.904h-3.254c-0.498,0-0.904-0.407-0.904-0.904v-3.709C67.83,61.579,68.236,61.172,68.734,61.172z"/>
	<path fill-rule="evenodd" clip-rule="evenodd" fill="#B3B3B3" d="M62.166,61.172h3.254c0.498,0,0.904,0.406,0.904,0.904v3.709
		c0,0.497-0.406,0.904-0.904,0.904h-3.254c-0.497,0-0.904-0.407-0.904-0.904v-3.709C61.261,61.579,61.668,61.172,62.166,61.172z"/>
	<path fill-rule="evenodd" clip-rule="evenodd" fill="#B3B3B3" d="M55.598,61.172h3.254c0.497,0,0.904,0.406,0.904,0.904v3.709
		c0,0.497-0.407,0.904-0.904,0.904h-3.254c-0.497,0-0.905-0.407-0.905-0.904v-3.709C54.693,61.579,55.101,61.172,55.598,61.172z"/>
	<path fill-rule="evenodd" clip-rule="evenodd" fill="#B3B3B3" d="M48.815,61.172h3.315c0.507,0,0.922,0.415,0.922,0.922v3.674
		c0,0.507-0.415,0.922-0.922,0.922h-3.315c-0.507,0-0.922-0.415-0.922-0.922v-3.674C47.893,61.587,48.308,61.172,48.815,61.172z"/>
	<path fill-rule="evenodd" clip-rule="evenodd" fill="#B3B3B3" d="M48.878,67.644h6.822c0.543,0,0.986,0.443,0.986,0.985v3.547
		c0,0.541-0.443,0.985-0.986,0.985h-6.822c-0.542,0-0.985-0.444-0.985-0.985v-3.547C47.893,68.087,48.337,67.644,48.878,67.644z"/>
	<path fill-rule="evenodd" clip-rule="evenodd" fill="#B3B3B3" d="M48.879,74.116h8.111c0.543,0,0.986,0.444,0.986,0.986v3.546
		c0,0.541-0.443,0.984-0.986,0.984h-8.111c-0.542,0-0.986-0.443-0.986-0.984v-3.546C47.893,74.56,48.337,74.116,48.879,74.116z"/>
	<path fill-rule="evenodd" clip-rule="evenodd" fill="#B3B3B3" d="M48.879,80.588h11.629c0.542,0,0.985,0.443,0.985,0.986v3.544
		c0,0.543-0.443,0.986-0.985,0.986H48.879c-0.542,0-0.986-0.443-0.986-0.986v-3.544C47.893,81.031,48.337,80.588,48.879,80.588z"/>
	<path fill-rule="evenodd" clip-rule="evenodd" fill="#B3B3B3" d="M48.879,87.058h4.829c0.543,0,0.985,0.445,0.985,0.986v3.547
		c0,0.541-0.442,0.986-0.985,0.986h-4.829c-0.542,0-0.986-0.445-0.986-0.986v-3.547C47.893,87.503,48.337,87.058,48.879,87.058z"/>
	<path fill-rule="evenodd" clip-rule="evenodd" fill="#B3B3B3" d="M58.476,67.644h3.484c0.533,0,0.969,0.436,0.969,0.968v3.581
		c0,0.533-0.436,0.969-0.969,0.969h-3.484c-0.533,0-0.969-0.436-0.969-0.969v-3.581C57.507,68.08,57.943,67.644,58.476,67.644z"/>
	<path fill-rule="evenodd" clip-rule="evenodd" fill="#B3B3B3" d="M65.167,67.644h3.484c0.533,0,0.969,0.436,0.969,0.968v3.581
		c0,0.533-0.436,0.969-0.969,0.969h-3.484c-0.533,0-0.969-0.436-0.969-0.969v-3.581C64.199,68.08,64.634,67.644,65.167,67.644z"/>
	<path fill-rule="evenodd" clip-rule="evenodd" fill="#B3B3B3" d="M71.858,67.644h3.485c0.533,0,0.969,0.436,0.969,0.968v3.581
		c0,0.533-0.436,0.969-0.969,0.969h-3.485c-0.532,0-0.968-0.436-0.968-0.969v-3.581C70.89,68.08,71.326,67.644,71.858,67.644z"/>
	<path fill-rule="evenodd" clip-rule="evenodd" fill="#B3B3B3" d="M78.549,67.644h3.485c0.532,0,0.969,0.436,0.969,0.968v3.581
		c0,0.533-0.437,0.969-0.969,0.969h-3.485c-0.533,0-0.968-0.436-0.968-0.969v-3.581C77.582,68.08,78.016,67.644,78.549,67.644z"/>
	<path fill-rule="evenodd" clip-rule="evenodd" fill="#B3B3B3" d="M85.241,67.644h3.484c0.533,0,0.969,0.436,0.969,0.968v3.581
		c0,0.533-0.436,0.969-0.969,0.969h-3.484c-0.533,0-0.969-0.436-0.969-0.969v-3.581C84.272,68.08,84.708,67.644,85.241,67.644z"/>
	<path fill-rule="evenodd" clip-rule="evenodd" fill="#B3B3B3" d="M91.932,67.644h3.484c0.533,0,0.969,0.436,0.969,0.968v3.581
		c0,0.533-0.436,0.969-0.969,0.969h-3.484c-0.533,0-0.969-0.436-0.969-0.969v-3.581C90.963,68.08,91.399,67.644,91.932,67.644z"/>
	<path fill-rule="evenodd" clip-rule="evenodd" fill="#B3B3B3" d="M98.623,67.644h3.485c0.532,0,0.969,0.436,0.969,0.968v3.581
		c0,0.533-0.437,0.969-0.969,0.969h-3.485c-0.532,0-0.969-0.436-0.969-0.969v-3.581C97.654,68.08,98.09,67.644,98.623,67.644z"/>
	<path fill-rule="evenodd" clip-rule="evenodd" fill="#B3B3B3" d="M105.314,67.644h3.484c0.533,0,0.969,0.436,0.969,0.968v3.581
		c0,0.533-0.436,0.969-0.969,0.969h-3.484c-0.533,0-0.969-0.436-0.969-0.969v-3.581C104.345,68.08,104.781,67.644,105.314,67.644z"
		/>
	<path fill-rule="evenodd" clip-rule="evenodd" fill="#B3B3B3" d="M112.005,67.644h3.484c0.533,0,0.969,0.436,0.969,0.968v3.581
		c0,0.533-0.436,0.969-0.969,0.969h-3.484c-0.533,0-0.969-0.436-0.969-0.969v-3.581C111.037,68.08,111.472,67.644,112.005,67.644z"
		/>
	<path fill-rule="evenodd" clip-rule="evenodd" fill="#B3B3B3" d="M118.696,67.644h3.485c0.532,0,0.969,0.436,0.969,0.968v3.581
		c0,0.533-0.437,0.969-0.969,0.969h-3.485c-0.532,0-0.969-0.436-0.969-0.969v-3.581C117.727,68.08,118.164,67.644,118.696,67.644z"
		/>
	<path fill-rule="evenodd" clip-rule="evenodd" fill="#B3B3B3" d="M125.387,67.644h3.484c0.533,0,0.97,0.436,0.97,0.968v3.581
		c0,0.533-0.437,0.969-0.97,0.969h-3.484c-0.532,0-0.969-0.436-0.969-0.969v-3.581C124.418,68.08,124.855,67.644,125.387,67.644z"/>
	<path fill-rule="evenodd" clip-rule="evenodd" fill="#B3B3B3" d="M132.079,67.644h3.484c0.533,0,0.969,0.436,0.969,0.968v3.581
		c0,0.533-0.436,0.969-0.969,0.969h-3.484c-0.533,0-0.969-0.436-0.969-0.969v-3.581C131.11,68.08,131.545,67.644,132.079,67.644z"/>
	<path fill-rule="evenodd" clip-rule="evenodd" fill="#B3B3B3" d="M60.337,74.116h3.484c0.533,0,0.969,0.436,0.969,0.969v3.582
		c0,0.531-0.436,0.967-0.969,0.967h-3.484c-0.533,0-0.969-0.436-0.969-0.967v-3.582C59.369,74.551,59.804,74.116,60.337,74.116z"/>
	<path fill-rule="evenodd" clip-rule="evenodd" fill="#B3B3B3" d="M67.029,74.116h3.484c0.533,0,0.969,0.436,0.969,0.969v3.582
		c0,0.531-0.436,0.967-0.969,0.967h-3.484c-0.533,0-0.969-0.436-0.969-0.967v-3.582C66.06,74.551,66.496,74.116,67.029,74.116z"/>
	<path fill-rule="evenodd" clip-rule="evenodd" fill="#B3B3B3" d="M73.72,74.116h3.484c0.533,0,0.969,0.436,0.969,0.969v3.582
		c0,0.531-0.436,0.967-0.969,0.967H73.72c-0.533,0-0.969-0.436-0.969-0.967v-3.582C72.751,74.551,73.187,74.116,73.72,74.116z"/>
	<path fill-rule="evenodd" clip-rule="evenodd" fill="#B3B3B3" d="M80.412,74.116h3.484c0.533,0,0.969,0.436,0.969,0.969v3.582
		c0,0.531-0.436,0.967-0.969,0.967h-3.484c-0.533,0-0.969-0.436-0.969-0.967v-3.582C79.443,74.551,79.878,74.116,80.412,74.116z"/>
	<path fill-rule="evenodd" clip-rule="evenodd" fill="#B3B3B3" d="M87.102,74.116h3.484c0.533,0,0.97,0.436,0.97,0.969v3.582
		c0,0.531-0.437,0.967-0.97,0.967h-3.484c-0.533,0-0.969-0.436-0.969-0.967v-3.582C86.133,74.551,86.569,74.116,87.102,74.116z"/>
	<path fill-rule="evenodd" clip-rule="evenodd" fill="#B3B3B3" d="M93.793,74.116h3.484c0.533,0,0.969,0.436,0.969,0.969v3.582
		c0,0.531-0.436,0.967-0.969,0.967h-3.484c-0.533,0-0.969-0.436-0.969-0.967v-3.582C92.825,74.551,93.26,74.116,93.793,74.116z"/>
	<path fill-rule="evenodd" clip-rule="evenodd" fill="#B3B3B3" d="M100.484,74.116h3.485c0.532,0,0.969,0.436,0.969,0.969v3.582
		c0,0.531-0.437,0.967-0.969,0.967h-3.485c-0.533,0-0.968-0.436-0.968-0.967v-3.582C99.516,74.551,99.951,74.116,100.484,74.116z"/>
	<path fill-rule="evenodd" clip-rule="evenodd" fill="#B3B3B3" d="M107.175,74.116h3.485c0.532,0,0.969,0.436,0.969,0.969v3.582
		c0,0.531-0.437,0.967-0.969,0.967h-3.485c-0.532,0-0.969-0.436-0.969-0.967v-3.582C106.207,74.551,106.643,74.116,107.175,74.116z"
		/>
	<path fill-rule="evenodd" clip-rule="evenodd" fill="#B3B3B3" d="M113.867,74.116h3.484c0.533,0,0.969,0.436,0.969,0.969v3.582
		c0,0.531-0.436,0.967-0.969,0.967h-3.484c-0.533,0-0.969-0.436-0.969-0.967v-3.582C112.898,74.551,113.333,74.116,113.867,74.116z"
		/>
	<path fill-rule="evenodd" clip-rule="evenodd" fill="#B3B3B3" d="M120.558,74.116h3.484c0.533,0,0.969,0.436,0.969,0.969v3.582
		c0,0.531-0.436,0.967-0.969,0.967h-3.484c-0.533,0-0.97-0.436-0.97-0.967v-3.582C119.588,74.551,120.025,74.116,120.558,74.116z"/>
	<path fill-rule="evenodd" clip-rule="evenodd" fill="#B3B3B3" d="M127.249,74.116h3.484c0.533,0,0.97,0.436,0.97,0.969v3.582
		c0,0.531-0.437,0.967-0.97,0.967h-3.484c-0.532,0-0.969-0.436-0.969-0.967v-3.582C126.28,74.551,126.716,74.116,127.249,74.116z"/>
	<path fill-rule="evenodd" clip-rule="evenodd" fill="#B3B3B3" d="M63.84,80.588h3.485c0.533,0,0.969,0.436,0.969,0.969v3.579
		c0,0.533-0.436,0.969-0.969,0.969H63.84c-0.532,0-0.968-0.436-0.968-0.969v-3.579C62.873,81.023,63.308,80.588,63.84,80.588z"/>
	<path fill-rule="evenodd" clip-rule="evenodd" fill="#B3B3B3" d="M70.532,80.588h3.485c0.532,0,0.969,0.436,0.969,0.969v3.579
		c0,0.533-0.437,0.969-0.969,0.969h-3.485c-0.533,0-0.968-0.436-0.968-0.969v-3.579C69.564,81.023,69.999,80.588,70.532,80.588z"/>
	<path fill-rule="evenodd" clip-rule="evenodd" fill="#B3B3B3" d="M77.222,80.588h3.485c0.532,0,0.97,0.436,0.97,0.969v3.579
		c0,0.533-0.438,0.969-0.97,0.969h-3.485c-0.532,0-0.968-0.436-0.968-0.969v-3.579C76.254,81.023,76.69,80.588,77.222,80.588z"/>
	<path fill-rule="evenodd" clip-rule="evenodd" fill="#B3B3B3" d="M83.914,80.588h3.485c0.532,0,0.969,0.436,0.969,0.969v3.579
		c0,0.533-0.437,0.969-0.969,0.969h-3.485c-0.533,0-0.969-0.436-0.969-0.969v-3.579C82.945,81.023,83.38,80.588,83.914,80.588z"/>
	<path fill-rule="evenodd" clip-rule="evenodd" fill="#B3B3B3" d="M90.605,80.588h3.484c0.533,0,0.97,0.436,0.97,0.969v3.579
		c0,0.533-0.437,0.969-0.97,0.969h-3.484c-0.533,0-0.969-0.436-0.969-0.969v-3.579C89.636,81.023,90.072,80.588,90.605,80.588z"/>
	<path fill-rule="evenodd" clip-rule="evenodd" fill="#B3B3B3" d="M97.296,80.588h3.484c0.533,0,0.969,0.436,0.969,0.969v3.579
		c0,0.533-0.436,0.969-0.969,0.969h-3.484c-0.533,0-0.969-0.436-0.969-0.969v-3.579C96.328,81.023,96.763,80.588,97.296,80.588z"/>
	<path fill-rule="evenodd" clip-rule="evenodd" fill="#B3B3B3" d="M103.988,80.588h3.484c0.533,0,0.969,0.436,0.969,0.969v3.579
		c0,0.533-0.436,0.969-0.969,0.969h-3.484c-0.533,0-0.969-0.436-0.969-0.969v-3.579C103.019,81.023,103.455,80.588,103.988,80.588z"
		/>
	<path fill-rule="evenodd" clip-rule="evenodd" fill="#B3B3B3" d="M110.678,80.588h3.485c0.532,0,0.969,0.436,0.969,0.969v3.579
		c0,0.533-0.437,0.969-0.969,0.969h-3.485c-0.532,0-0.969-0.436-0.969-0.969v-3.579C109.709,81.023,110.146,80.588,110.678,80.588z"
		/>
	<path fill-rule="evenodd" clip-rule="evenodd" fill="#B3B3B3" d="M117.37,80.588h3.484c0.533,0,0.97,0.436,0.97,0.969v3.579
		c0,0.533-0.437,0.969-0.97,0.969h-3.484c-0.533,0-0.969-0.436-0.969-0.969v-3.579C116.401,81.023,116.836,80.588,117.37,80.588z"/>
	<path fill-rule="evenodd" clip-rule="evenodd" fill="#B3B3B3" d="M124.061,80.588h3.484c0.533,0,0.969,0.436,0.969,0.969v3.579
		c0,0.533-0.436,0.969-0.969,0.969h-3.484c-0.533,0-0.969-0.436-0.969-0.969v-3.579C123.092,81.023,123.528,80.588,124.061,80.588z"
		/>
	<path fill-rule="evenodd" clip-rule="evenodd" fill="#B3B3B3" d="M130.769,80.588h6.302c0.542,0,0.985,0.443,0.985,0.986v3.544
		c0,0.543-0.443,0.986-0.985,0.986h-6.302c-0.542,0-0.985-0.443-0.985-0.986v-3.544C129.784,81.031,130.227,80.588,130.769,80.588z"
		/>
	<path fill-rule="evenodd" clip-rule="evenodd" fill="#B3B3B3" d="M57.041,87.058h3.484c0.533,0,0.969,0.438,0.969,0.969v3.582
		c0,0.533-0.436,0.969-0.969,0.969h-3.484c-0.533,0-0.969-0.436-0.969-0.969v-3.582C56.072,87.495,56.507,87.058,57.041,87.058z"/>
	<path fill-rule="evenodd" clip-rule="evenodd" fill="#B3B3B3" d="M63.732,87.058h3.484c0.533,0,0.969,0.438,0.969,0.969v3.582
		c0,0.533-0.436,0.969-0.969,0.969h-3.484c-0.533,0-0.969-0.436-0.969-0.969v-3.582C62.763,87.495,63.199,87.058,63.732,87.058z"/>
	<path fill-rule="evenodd" clip-rule="evenodd" fill="#B3B3B3" d="M70.423,87.058h3.484c0.533,0,0.969,0.438,0.969,0.969v3.582
		c0,0.533-0.436,0.969-0.969,0.969h-3.484c-0.533,0-0.969-0.436-0.969-0.969v-3.582C69.455,87.495,69.89,87.058,70.423,87.058z"/>
	<path fill-rule="evenodd" clip-rule="evenodd" fill="#B3B3B3" d="M77.114,87.058h3.485c0.532,0,0.969,0.438,0.969,0.969v3.582
		c0,0.533-0.437,0.969-0.969,0.969h-3.485c-0.532,0-0.968-0.436-0.968-0.969v-3.582C76.146,87.495,76.582,87.058,77.114,87.058z"/>
	<path fill-rule="evenodd" clip-rule="evenodd" fill="#B3B3B3" d="M83.804,87.058h3.485c0.533,0,0.969,0.438,0.969,0.969v3.582
		c0,0.533-0.436,0.969-0.969,0.969h-3.485c-0.532,0-0.968-0.436-0.968-0.969v-3.582C82.836,87.495,83.272,87.058,83.804,87.058z"/>
	<path fill-rule="evenodd" clip-rule="evenodd" fill="#B3B3B3" d="M90.497,87.058h3.484c0.532,0,0.969,0.438,0.969,0.969v3.582
		c0,0.533-0.437,0.969-0.969,0.969h-3.484c-0.533,0-0.969-0.436-0.969-0.969v-3.582C89.528,87.495,89.963,87.058,90.497,87.058z"/>
	<path fill-rule="evenodd" clip-rule="evenodd" fill="#B3B3B3" d="M97.187,87.058h3.485c0.532,0,0.969,0.438,0.969,0.969v3.582
		c0,0.533-0.437,0.969-0.969,0.969h-3.485c-0.532,0-0.969-0.436-0.969-0.969v-3.582C96.218,87.495,96.655,87.058,97.187,87.058z"/>
	<path fill-rule="evenodd" clip-rule="evenodd" fill="#B3B3B3" d="M103.878,87.058h3.484c0.533,0,0.97,0.438,0.97,0.969v3.582
		c0,0.533-0.437,0.969-0.97,0.969h-3.484c-0.532,0-0.969-0.436-0.969-0.969v-3.582C102.91,87.495,103.346,87.058,103.878,87.058z"/>
	<path fill-rule="evenodd" clip-rule="evenodd" fill="#B3B3B3" d="M110.57,87.058h3.484c0.533,0,0.969,0.438,0.969,0.969v3.582
		c0,0.533-0.436,0.969-0.969,0.969h-3.484c-0.533,0-0.969-0.436-0.969-0.969v-3.582C109.601,87.495,110.037,87.058,110.57,87.058z"
		/>
	<path fill-rule="evenodd" clip-rule="evenodd" fill="#B3B3B3" d="M117.26,87.058h3.485c0.533,0,0.969,0.438,0.969,0.969v3.582
		c0,0.533-0.436,0.969-0.969,0.969h-3.485c-0.532,0-0.968-0.436-0.968-0.969v-3.582C116.292,87.495,116.728,87.058,117.26,87.058z"
		/>
	<path fill-rule="evenodd" clip-rule="evenodd" fill="#B3B3B3" d="M123.969,87.058h6.301c0.543,0,0.986,0.445,0.986,0.986v3.547
		c0,0.541-0.443,0.986-0.986,0.986h-6.301c-0.543,0-0.986-0.445-0.986-0.986v-3.547C122.983,87.503,123.426,87.058,123.969,87.058z"
		/>
	<path fill-rule="evenodd" clip-rule="evenodd" fill="#B3B3B3" d="M133.819,87.058h3.316c0.507,0,0.921,0.416,0.921,0.924v3.674
		c0,0.506-0.414,0.922-0.921,0.922h-3.316c-0.507,0-0.922-0.416-0.922-0.922v-3.674C132.897,87.474,133.312,87.058,133.819,87.058z"
		/>
	<path fill-rule="evenodd" clip-rule="evenodd" fill="#B3B3B3" d="M81.524,97.218h34.771c0.529,0,0.964,0.434,0.964,0.965v16.717
		c0,0.531-0.435,0.965-0.964,0.965H81.524c-0.53,0-0.964-0.434-0.964-0.965V98.183C80.56,97.651,80.994,97.218,81.524,97.218z"/>
	<path fill-rule="evenodd" clip-rule="evenodd" fill="#B3B3B3" d="M80.759,117.114h17.294c0.11,0,0.2,0.09,0.2,0.199v3.473
		c0,0.111-0.09,0.201-0.2,0.201H80.759c-0.109,0-0.199-0.09-0.199-0.201v-3.473C80.56,117.204,80.65,117.114,80.759,117.114z"/>
	<path fill-rule="evenodd" clip-rule="evenodd" fill="#B3B3B3" d="M99.765,117.114h17.293c0.11,0,0.2,0.09,0.2,0.199v3.473
		c0,0.111-0.09,0.201-0.2,0.201H99.765c-0.109,0-0.2-0.09-0.2-0.201v-3.473C99.565,117.204,99.656,117.114,99.765,117.114z"/>
	<g>
		<path fill-rule="evenodd" clip-rule="evenodd" fill="#CCCCCC" d="M2.698,0h97.169h98.293c2.381,0,3.54,1.817-0.344,5.506
			L157.105,44.18c-19.45,0-38.9,0-58.33,0c-19.451,0-38.881,0-58.31,0L2.694,6.251C0.74,4.29-2.242,0,2.698,0z"/>
		<path fill-rule="evenodd" clip-rule="evenodd" fill="#315263" d="M184.621,11.191l-27.763,28.051c-38.653,0-77.307,0-115.96,0
			c-8.728-9.94-17.444-19.054-26.566-28.051C71.095,11.191,127.857,11.191,184.621,11.191z"/>
		<polygon fill-rule="evenodd" clip-rule="evenodd" fill="#193E50" points="40.897,39.242 156.858,39.242 184.621,11.191 		"/>
		<path fill-rule="evenodd" clip-rule="evenodd" fill="#FFFFFF" d="M1.788,0.558h196.399c0.659,0,1.198,0.539,1.198,1.198l0,0
			c0,0.659-0.539,1.198-1.198,1.198H1.788c-0.659,0-1.198-0.539-1.198-1.198l0,0C0.589,1.097,1.128,0.558,1.788,0.558z"/>
	</g>
</g>
</svg>
