<?xml version="1.0" encoding="utf-8"?>
<!-- Generator: Adobe Illustrator 16.0.0, SVG Export Plug-In . SVG Version: 6.00 Build 0)  -->
<!DOCTYPE svg PUBLIC "-//W3C//DTD SVG 1.1//EN" "http://www.w3.org/Graphics/SVG/1.1/DTD/svg11.dtd">
<svg version="1.1" id="Layer_1" xmlns="http://www.w3.org/2000/svg" xmlns:xlink="http://www.w3.org/1999/xlink" x="0px" y="0px"
	 width="293px" height="394.5px" viewBox="-207 -215 293 394.5" enable-background="new -207 -215 293 394.5" xml:space="preserve">
<polygon fill="#FEC700" points="-207,-135 -164.93,-215 -123,-135 "/>
<polygon fill="#E5005B" points="2,179.5 44.07,99.5 86,179.5 "/>
<g>
	<g>
		<rect x="-96" y="-215" fill="#009FE3" width="22" height="80"/>
		<circle fill="#009FE3" cx="-74" cy="-195" r="20"/>
		<circle fill="#009FE3" cx="-74" cy="-155" r="20"/>
	</g>
</g>
<circle fill="#E84E0F" cx="-167" cy="-69" r="40"/>
<g>
	<circle fill="#007BC4" cx="-56" cy="-69" r="40"/>
	<rect x="-96" y="-109" fill="#007BC4" width="80" height="40"/>
</g>
<polygon fill="#FEC700" points="6,-109 6,-78 33,-91 33,-29 59,-29 59,-91 86,-78 86,-109 "/>
<polygon fill="#E84E0F" points="-207,99.5 -207,130.5 -180,117.5 -180,179.5 -154,179.5 -154,117.5 -127,130.5 -127,99.5 "/>
<g>
	<rect x="-179" y="18" fill="#007BC4" width="28" height="59"/>
	<polygon fill="#007BC4" points="-123,51 -207,51 -207,-3 -164.93,18 -123,-3 	"/>
</g>
<g>
	<g>
		<polygon fill="#FEC700" points="-31,77 -31,51.643 -96,37 -96,77 		"/>
		<polygon fill="#FEC700" points="-31,-3 -96,-3 -96,37 -31,22.359 		"/>
	</g>
</g>
<path fill="#9ABD36" d="M-31,129.5c0-16.568-13.432-30-30-30h-35v80h35h30l-30-20C-44.432,159.5-31,146.068-31,129.5z"/>
</svg>
