<?xml version="1.0" encoding="utf-8"?>
<!-- Generator: Adobe Illustrator 16.0.0, SVG Export Plug-In . SVG Version: 6.00 Build 0)  -->
<!DOCTYPE svg PUBLIC "-//W3C//DTD SVG 1.1//EN" "http://www.w3.org/Graphics/SVG/1.1/DTD/svg11.dtd">
<svg version="1.1" id="图层_1" xmlns="http://www.w3.org/2000/svg" xmlns:xlink="http://www.w3.org/1999/xlink" x="0px" y="0px"
	 width="1000px" height="500px" viewBox="0 0 1000 500" enable-background="new 0 0 1000 500" xml:space="preserve">
<polygon fill="#FEC700" points="267,240 309.07,160 351,240 "/>
<polygon fill="#E5005B" points="654,354 696.07,274 738,354 "/>
<g>
	<g>
		<rect x="378" y="160" fill="#009FE3" width="22" height="80"/>
		<circle fill="#009FE3" cx="400" cy="180" r="20"/>
		<circle fill="#009FE3" cx="400" cy="220" r="20"/>
	</g>
</g>
<circle fill="#E84E0F" cx="485.334" cy="200" r="40"/>
<g>
	<circle fill="#007BC4" cx="590" cy="200" r="40"/>
	<rect x="550" y="160" fill="#007BC4" width="80" height="40"/>
</g>
<polygon fill="#FEC700" points="658,160 658,191 685,178 685,240 711,240 711,178 738,191 738,160 "/>
<polygon fill="#E84E0F" points="470,274 470,305 497,292 497,354 523,354 523,292 550,305 550,274 "/>
<g>
	<rect x="295" y="295" fill="#007BC4" width="28" height="59"/>
	<polygon fill="#007BC4" points="351,328 267,328 267,274 309.07,295 351,274 	"/>
</g>
<g>
	<g>
		<polygon fill="#FEC700" points="443,354 443,328.642 378,314 378,354 		"/>
		<polygon fill="#FEC700" points="443,274 378,274 378,314 443,299.359 		"/>
	</g>
</g>
<g>
	<g>
		<rect x="577" y="274" fill="#9ABD36" width="31" height="80"/>
		<path fill="#9ABD36" d="M637.5,304.25c0,16.401-13.162,29.729-29.5,29.996c-0.166,0.003-0.333,0.004-0.5,0.004
			c-16.568,0-30-13.432-30-30s13.432-30,30-30S637.5,287.682,637.5,304.25z"/>
		<polyline fill="#9ABD36" points="608,354 637,354 608,334.246 		"/>
	</g>
</g>
</svg>
