<?xml version="1.0" encoding="utf-8"?>
<!-- Generator: Adobe Illustrator 16.0.0, SVG Export Plug-In . SVG Version: 6.00 Build 0)  -->
<!DOCTYPE svg PUBLIC "-//W3C//DTD SVG 1.1//EN" "http://www.w3.org/Graphics/SVG/1.1/DTD/svg11.dtd">
<svg version="1.1" id="图层_2" xmlns="http://www.w3.org/2000/svg" xmlns:xlink="http://www.w3.org/1999/xlink" x="0px" y="0px"
	 width="162.051px" height="158.754px" viewBox="0 0 162.051 158.754" enable-background="new 0 0 162.051 158.754"
	 xml:space="preserve">
<g>
	<rect x="6.54" fill-rule="evenodd" clip-rule="evenodd" fill="#F04152" width="111.379" height="158.754"/>
	<path fill-rule="evenodd" clip-rule="evenodd" fill="#FFFFFF" d="M11.38,2.029h103.415v154.695H11.38v-6.95
		c0.667-0.001,1.214-0.546,1.214-1.213v-4.652c0-0.666-0.547-1.212-1.214-1.213v-3.209c0.667,0,1.214-0.545,1.214-1.212v-4.651
		c0-0.667-0.547-1.214-1.214-1.214v-3.208c0.667,0,1.214-0.546,1.214-1.213v-4.651c0-0.667-0.547-1.213-1.214-1.213v-3.209
		c0.667-0.001,1.214-0.546,1.214-1.213v-4.651c0-0.667-0.547-1.213-1.214-1.213v-3.208c0.667,0,1.214-0.545,1.214-1.213v-4.651
		c0-0.668-0.547-1.213-1.214-1.213v-3.208c0.667,0,1.214-0.545,1.214-1.213V92.48c0-0.667-0.547-1.213-1.214-1.213v-3.208
		c0.667,0,1.214-0.545,1.214-1.213v-4.651c0-0.667-0.547-1.213-1.214-1.213v-3.208c0.667,0,1.214-0.545,1.214-1.213v-4.65
		c0-0.668-0.547-1.213-1.214-1.214v-3.208c0.667,0,1.214-0.545,1.214-1.213v-4.651c0-0.667-0.547-1.212-1.214-1.213v-3.208
		c0.667-0.001,1.214-0.546,1.214-1.213v-4.651c0-0.668-0.547-1.213-1.214-1.213v-3.209c0.667-0.001,1.214-0.546,1.214-1.213v-4.652
		c0-0.667-0.547-1.212-1.214-1.212v-3.208c0.667,0,1.214-0.547,1.214-1.214v-4.65c0-0.667-0.547-1.213-1.214-1.213v-3.208
		c0.667,0,1.214-0.547,1.214-1.213v-4.651c0-0.667-0.547-1.213-1.214-1.213v-3.208c0.667,0,1.214-0.546,1.214-1.213v-4.651
		c0-0.668-0.547-1.212-1.214-1.213V2.029z M7.667,2.029h3.714v6.95l0,0l0,0c-0.667,0-1.213,0.545-1.213,1.213v4.651
		c0,0.667,0.546,1.213,1.213,1.213l0,0l0,0v3.208l0,0l0,0c-0.667,0-1.213,0.546-1.213,1.213v4.651c0,0.667,0.546,1.213,1.213,1.213
		l0,0l0,0v3.208l0,0l0,0c-0.667,0-1.213,0.546-1.213,1.213v4.65c0,0.667,0.546,1.214,1.213,1.214l0,0l0,0v3.208l0,0l0,0
		c-0.667,0-1.213,0.545-1.213,1.212v4.652c0,0.667,0.546,1.213,1.213,1.213l0,0l0,0v3.209l0,0l0,0c-0.667,0-1.213,0.545-1.213,1.213
		v4.651c0,0.667,0.546,1.213,1.213,1.213l0,0l0,0v3.208l0,0l0,0c-0.667,0-1.213,0.546-1.213,1.213v4.651
		c0,0.668,0.546,1.213,1.213,1.213l0,0l0,0v3.208l0,0l0,0c-0.667,0-1.213,0.546-1.213,1.214v4.65c0,0.668,0.546,1.213,1.213,1.213
		l0,0l0,0v3.208l0,0l0,0c-0.667,0-1.213,0.546-1.213,1.213v4.651c0,0.668,0.546,1.213,1.213,1.213l0,0l0,0v3.208l0,0l0,0
		c-0.667,0-1.213,0.546-1.213,1.213v4.651c0,0.668,0.546,1.213,1.213,1.213l0,0l0,0v3.208l0,0l0,0c-0.667,0-1.213,0.545-1.213,1.213
		v4.651c0,0.668,0.546,1.213,1.213,1.213l0,0l0,0v3.208l0,0l0,0c-0.667,0-1.213,0.546-1.213,1.213v4.651
		c0,0.667,0.546,1.213,1.213,1.213l0,0l0,0v3.209l0,0l0,0c-0.667,0-1.213,0.546-1.213,1.213v4.651c0,0.667,0.546,1.213,1.213,1.213
		l0,0l0,0v3.208l0,0l0,0c-0.667,0-1.213,0.547-1.213,1.214v4.651c0,0.667,0.546,1.212,1.213,1.212l0,0l0,0v3.209l0,0l0,0
		c-0.667,0-1.213,0.547-1.213,1.213v4.652c0,0.667,0.546,1.213,1.213,1.213l0,0l0,0v6.95H7.667V2.029z"/>
	<g>
		<g>
			<path fill-rule="evenodd" clip-rule="evenodd" fill="#4C8EB4" d="M10.629,10.262H0.752C0.338,10.262,0,10.6,0,11.014l0,0
				c0,0.414,0.338,0.752,0.752,0.752h9.877c0.413,0,0.751-0.338,0.751-0.752l0,0C11.38,10.6,11.042,10.262,10.629,10.262z"/>
			<path fill-rule="evenodd" clip-rule="evenodd" fill="#4C8EB4" d="M10.629,13.27H0.752C0.338,13.27,0,13.608,0,14.021l0,0
				c0,0.414,0.338,0.752,0.752,0.752h9.877c0.413,0,0.751-0.338,0.751-0.752l0,0C11.38,13.608,11.042,13.27,10.629,13.27z"/>
		</g>
		<g>
			<path fill-rule="evenodd" clip-rule="evenodd" fill="#4C8EB4" d="M10.629,20.536H0.752C0.338,20.536,0,20.875,0,21.288l0,0
				c0,0.413,0.338,0.751,0.752,0.751h9.877c0.413,0,0.751-0.338,0.751-0.751l0,0C11.38,20.875,11.042,20.536,10.629,20.536z"/>
			<path fill-rule="evenodd" clip-rule="evenodd" fill="#4C8EB4" d="M10.629,23.543H0.752C0.338,23.543,0,23.881,0,24.295l0,0
				c0,0.413,0.338,0.752,0.752,0.752h9.877c0.413,0,0.751-0.339,0.751-0.752l0,0C11.38,23.881,11.042,23.543,10.629,23.543z"/>
		</g>
		<g>
			<path fill-rule="evenodd" clip-rule="evenodd" fill="#4C8EB4" d="M10.629,30.809H0.752C0.338,30.809,0,31.147,0,31.561l0,0
				c0,0.414,0.338,0.752,0.752,0.752h9.877c0.413,0,0.751-0.339,0.751-0.752l0,0C11.38,31.147,11.042,30.809,10.629,30.809z"/>
			<path fill-rule="evenodd" clip-rule="evenodd" fill="#4C8EB4" d="M10.629,33.817H0.752C0.338,33.817,0,34.155,0,34.569l0,0
				c0,0.414,0.338,0.751,0.752,0.751h9.877c0.413,0,0.751-0.338,0.751-0.751l0,0C11.38,34.155,11.042,33.817,10.629,33.817z"/>
		</g>
		<g>
			<path fill-rule="evenodd" clip-rule="evenodd" fill="#4C8EB4" d="M10.629,41.083H0.752C0.338,41.083,0,41.421,0,41.835l0,0
				c0,0.414,0.338,0.752,0.752,0.752h9.877c0.413,0,0.751-0.338,0.751-0.752l0,0C11.38,41.421,11.042,41.083,10.629,41.083z"/>
			<path fill-rule="evenodd" clip-rule="evenodd" fill="#4C8EB4" d="M10.629,44.091H0.752C0.338,44.091,0,44.43,0,44.843l0,0
				c0,0.414,0.338,0.752,0.752,0.752h9.877c0.413,0,0.751-0.338,0.751-0.752l0,0C11.38,44.43,11.042,44.091,10.629,44.091z"/>
		</g>
		<g>
			<path fill-rule="evenodd" clip-rule="evenodd" fill="#4C8EB4" d="M10.629,51.356H0.752C0.338,51.356,0,51.696,0,52.108l0,0
				c0,0.415,0.338,0.753,0.752,0.753h9.877c0.413,0,0.751-0.338,0.751-0.753l0,0C11.38,51.696,11.042,51.356,10.629,51.356z"/>
			<path fill-rule="evenodd" clip-rule="evenodd" fill="#4C8EB4" d="M10.629,54.364H0.752C0.338,54.364,0,54.703,0,55.116l0,0
				c0,0.414,0.338,0.752,0.752,0.752h9.877c0.413,0,0.751-0.338,0.751-0.752l0,0C11.38,54.703,11.042,54.364,10.629,54.364z"/>
		</g>
		<g>
			<path fill-rule="evenodd" clip-rule="evenodd" fill="#4C8EB4" d="M10.629,61.63H0.752C0.338,61.63,0,61.969,0,62.382l0,0
				c0,0.413,0.338,0.751,0.752,0.751h9.877c0.413,0,0.751-0.338,0.751-0.751l0,0C11.38,61.969,11.042,61.63,10.629,61.63z"/>
			<path fill-rule="evenodd" clip-rule="evenodd" fill="#4C8EB4" d="M10.629,64.638H0.752C0.338,64.638,0,64.977,0,65.39l0,0
				c0,0.414,0.338,0.751,0.752,0.751h9.877c0.413,0,0.751-0.338,0.751-0.751l0,0C11.38,64.977,11.042,64.638,10.629,64.638z"/>
		</g>
		<g>
			<path fill-rule="evenodd" clip-rule="evenodd" fill="#4C8EB4" d="M10.629,71.904H0.752C0.338,71.904,0,72.243,0,72.656l0,0
				c0,0.414,0.338,0.751,0.752,0.751h9.877c0.413,0,0.751-0.338,0.751-0.751l0,0C11.38,72.243,11.042,71.904,10.629,71.904z"/>
			<path fill-rule="evenodd" clip-rule="evenodd" fill="#4C8EB4" d="M10.629,74.911H0.752C0.338,74.911,0,75.25,0,75.663l0,0
				c0,0.415,0.338,0.751,0.752,0.751h9.877c0.413,0,0.751-0.337,0.751-0.751l0,0C11.38,75.25,11.042,74.911,10.629,74.911z"/>
		</g>
		<g>
			<path fill-rule="evenodd" clip-rule="evenodd" fill="#4C8EB4" d="M10.629,82.178H0.752C0.338,82.178,0,82.517,0,82.929l0,0
				c0,0.414,0.338,0.752,0.752,0.752h9.877c0.413,0,0.751-0.338,0.751-0.752l0,0C11.38,82.517,11.042,82.178,10.629,82.178z"/>
			<path fill-rule="evenodd" clip-rule="evenodd" fill="#4C8EB4" d="M10.629,85.186H0.752C0.338,85.186,0,85.523,0,85.937l0,0
				c0,0.414,0.338,0.752,0.752,0.752h9.877c0.413,0,0.751-0.338,0.751-0.752l0,0C11.38,85.523,11.042,85.186,10.629,85.186z"/>
		</g>
		<g>
			<path fill-rule="evenodd" clip-rule="evenodd" fill="#2E93DB" d="M10.629,92.452H0.752C0.338,92.452,0,92.79,0,93.203l0,0
				c0,0.414,0.338,0.752,0.752,0.752h9.877c0.413,0,0.751-0.338,0.751-0.752l0,0C11.38,92.79,11.042,92.452,10.629,92.452z"/>
			<path fill-rule="evenodd" clip-rule="evenodd" fill="#2E93DB" d="M10.629,95.458H0.752C0.338,95.458,0,95.798,0,96.211l0,0
				c0,0.413,0.338,0.751,0.752,0.751h9.877c0.413,0,0.751-0.338,0.751-0.751l0,0C11.38,95.798,11.042,95.458,10.629,95.458z"/>
		</g>
		<g>
			<path fill-rule="evenodd" clip-rule="evenodd" fill="#4C8EB4" d="M10.629,102.725H0.752c-0.414,0-0.752,0.339-0.752,0.753l0,0
				c0,0.414,0.338,0.751,0.752,0.751h9.877c0.413,0,0.751-0.338,0.751-0.751l0,0C11.38,103.064,11.042,102.725,10.629,102.725z"/>
			<path fill-rule="evenodd" clip-rule="evenodd" fill="#4C8EB4" d="M10.629,105.732H0.752c-0.414,0-0.752,0.338-0.752,0.752l0,0
				c0,0.414,0.338,0.753,0.752,0.753h9.877c0.413,0,0.751-0.339,0.751-0.753l0,0C11.38,106.071,11.042,105.732,10.629,105.732z"/>
		</g>
		<g>
			<path fill-rule="evenodd" clip-rule="evenodd" fill="#4C8EB4" d="M10.629,112.999H0.752c-0.414,0-0.752,0.338-0.752,0.751l0,0
				c0,0.414,0.338,0.752,0.752,0.752h9.877c0.413,0,0.751-0.338,0.751-0.752l0,0C11.38,113.337,11.042,112.999,10.629,112.999z"/>
			<path fill-rule="evenodd" clip-rule="evenodd" fill="#4C8EB4" d="M10.629,116.007H0.752c-0.414,0-0.752,0.338-0.752,0.752l0,0
				c0,0.413,0.338,0.751,0.752,0.751h9.877c0.413,0,0.751-0.338,0.751-0.751l0,0C11.38,116.345,11.042,116.007,10.629,116.007z"/>
		</g>
		<g>
			<path fill-rule="evenodd" clip-rule="evenodd" fill="#4C8EB4" d="M10.629,123.272H0.752c-0.414,0-0.752,0.339-0.752,0.752l0,0
				c0,0.414,0.338,0.752,0.752,0.752h9.877c0.413,0,0.751-0.338,0.751-0.752l0,0C11.38,123.611,11.042,123.272,10.629,123.272z"/>
			<path fill-rule="evenodd" clip-rule="evenodd" fill="#4C8EB4" d="M10.629,126.279H0.752c-0.414,0-0.752,0.34-0.752,0.752l0,0
				c0,0.415,0.338,0.753,0.752,0.753h9.877c0.413,0,0.751-0.338,0.751-0.753l0,0C11.38,126.619,11.042,126.279,10.629,126.279z"/>
		</g>
		<g>
			<path fill-rule="evenodd" clip-rule="evenodd" fill="#4C8EB4" d="M10.629,133.546H0.752c-0.414,0-0.752,0.338-0.752,0.752l0,0
				c0,0.413,0.338,0.753,0.752,0.753h9.877c0.413,0,0.751-0.34,0.751-0.753l0,0C11.38,133.884,11.042,133.546,10.629,133.546z"/>
			<path fill-rule="evenodd" clip-rule="evenodd" fill="#4C8EB4" d="M10.629,136.554H0.752c-0.414,0-0.752,0.338-0.752,0.752l0,0
				c0,0.413,0.338,0.752,0.752,0.752h9.877c0.413,0,0.751-0.339,0.751-0.752l0,0C11.38,136.892,11.042,136.554,10.629,136.554z"/>
		</g>
		<g>
			<path fill-rule="evenodd" clip-rule="evenodd" fill="#4C8EB4" d="M10.629,143.82H0.752c-0.414,0-0.752,0.338-0.752,0.751l0,0
				c0,0.414,0.338,0.752,0.752,0.752h9.877c0.413,0,0.751-0.338,0.751-0.752l0,0C11.38,144.158,11.042,143.82,10.629,143.82z"/>
			<path fill-rule="evenodd" clip-rule="evenodd" fill="#4C8EB4" d="M10.629,146.828H0.752c-0.414,0-0.752,0.338-0.752,0.751l0,0
				c0,0.414,0.338,0.752,0.752,0.752h9.877c0.413,0,0.751-0.338,0.751-0.752l0,0C11.38,147.166,11.042,146.828,10.629,146.828z"/>
		</g>
	</g>
</g>
<path fill="#999999" d="M93.657,35.31c-0.341,0.038-0.753-0.572-0.425-0.61c3.293-0.368,4.724-0.147,4.872,1.183
	c0.153,1.371-4.178,4.341-10.348,8.572c-13.696,9.392-36.516,25.04-39.332,42.044c-0.027,0.164-0.242,0.087-0.48-0.172
	c-0.238-0.259-0.409-0.604-0.382-0.768c2.833-17.102,25.691-32.777,39.412-42.187c6.108-4.188,10.396-7.128,10.267-8.279
	C97.239,35.068,96.019,35.044,93.657,35.31z"/>
<g>
	<path fill="#999999" d="M34.846,51.521l0.601,0.288c-0.738,2.43-2.099,3.989-4.087,4.678c-1.297,0.451-2.548,0.387-3.75-0.19
		c-0.583-0.276-1.116-0.703-1.597-1.28c-0.482-0.576-0.872-1.292-1.168-2.147c-0.297-0.854-0.453-1.796-0.469-2.826
		c-0.016-1.029,0.109-2.033,0.375-3.008c0.266-0.977,0.639-1.896,1.119-2.759s1.077-1.619,1.792-2.268
		c0.713-0.649,1.533-1.135,2.459-1.456c0.925-0.321,1.834-0.287,2.729,0.103c0.894,0.39,1.535,1.146,1.925,2.271
		c0.23,0.664,0.329,1.413,0.293,2.246c-0.034,0.833-0.175,1.627-0.425,2.38c-0.251,0.754-0.619,1.431-1.105,2.035
		c-0.487,0.604-1.037,1.012-1.652,1.226c-0.616,0.213-1.175,0.171-1.682-0.125c-0.506-0.295-0.856-0.722-1.05-1.281
		c-0.333-0.96-0.278-2.02,0.165-3.179c0.443-1.159,1.184-2.158,2.221-2.997l0.396,0.449c-0.522,0.417-0.963,0.963-1.32,1.64
		c-0.357,0.676-0.585,1.346-0.685,2.011c-0.1,0.665-0.078,1.205,0.066,1.618c0.299,0.862,0.901,1.134,1.808,0.82
		c0.634-0.22,1.167-0.736,1.597-1.549c0.431-0.813,0.7-1.685,0.804-2.615c0.105-0.932,0.028-1.768-0.228-2.507
		c-0.256-0.74-0.703-1.263-1.337-1.569c-0.635-0.305-1.344-0.323-2.126-0.051c-0.783,0.272-1.5,0.801-2.152,1.586
		c-0.654,0.787-1.162,1.681-1.528,2.685c-0.364,1.004-0.574,2.083-0.628,3.24c-0.054,1.157,0.088,2.225,0.429,3.205
		c0.55,1.584,1.454,2.575,2.711,2.97c0.734,0.231,1.473,0.218,2.215-0.04c0.742-0.257,1.406-0.704,1.993-1.337
		C34.141,53.152,34.572,52.397,34.846,51.521z"/>
	<path fill="#999999" d="M41.048,47.468c-0.237,0.082-0.46,0.338-0.673,0.77c-0.211,0.431-0.39,0.929-0.534,1.495
		c-0.229,0.904-0.429,1.924-0.599,3.058l-0.087,0.561l-1.313,0.456l-0.034-1.026c-0.052-1.897-0.134-3.005-0.246-3.323
		c-0.11-0.32-0.215-0.462-0.314-0.427c-0.181,0.062-0.316,0.363-0.407,0.903c-0.02,0.125-0.037,0.225-0.052,0.3
		c-0.015,0.076-0.032,0.165-0.047,0.271c-0.017,0.104-0.027,0.169-0.033,0.193l-0.757-0.168c0.194-1.002,0.424-1.774,0.691-2.312
		c0.265-0.538,0.608-0.879,1.032-1.026c0.192-0.067,0.389-0.038,0.587,0.084c0.199,0.122,0.339,0.3,0.42,0.533
		c0.081,0.234,0.141,0.445,0.178,0.634c0.038,0.189,0.067,0.365,0.089,0.527c0.022,0.163,0.041,0.358,0.058,0.588
		c0.017,0.23,0.028,0.407,0.033,0.53c0.004,0.124,0.012,0.29,0.021,0.501c0.011,0.209,0.016,0.333,0.014,0.371
		c0.03-0.276,0.098-0.69,0.207-1.243c0.107-0.553,0.18-0.903,0.22-1.049c0.039-0.146,0.096-0.343,0.17-0.589
		c0.075-0.247,0.147-0.444,0.218-0.59c0.071-0.146,0.158-0.315,0.262-0.51c0.103-0.194,0.21-0.351,0.322-0.471
		c0.288-0.292,0.593-0.493,0.917-0.605c0.323-0.112,0.617-0.102,0.882,0.03c0.265,0.133,0.444,0.332,0.537,0.598
		s0.094,0.528,0.005,0.783c-0.089,0.255-0.238,0.419-0.445,0.491c-0.208,0.073-0.384,0.092-0.529,0.057
		c-0.144-0.035-0.253-0.087-0.325-0.157C41.304,47.512,41.147,47.433,41.048,47.468z"/>
	<path fill="#999999" d="M45.327,49.031c0.3,0.744,0.912,0.955,1.838,0.633c0.342-0.118,0.661-0.345,0.958-0.681
		c0.297-0.335,0.512-0.684,0.645-1.046l0.496,0.138c-0.198,1.092-0.828,1.937-1.887,2.533c-0.235,0.125-0.467,0.228-0.696,0.308
		c-0.671,0.232-1.311,0.192-1.922-0.123c-0.61-0.314-1.032-0.811-1.268-1.488c-0.234-0.677-0.256-1.371-0.065-2.082
		c0.192-0.711,0.527-1.327,1.004-1.846c0.478-0.52,1.001-0.877,1.573-1.076c0.571-0.199,1.115-0.232,1.63-0.102
		c0.515,0.13,0.857,0.428,1.028,0.892c0.172,0.463,0.183,0.911,0.033,1.342c-0.149,0.431-0.398,0.806-0.747,1.126
		c-0.692,0.631-1.43,1.082-2.212,1.354L45.327,49.031z M45.084,48.509c0.68-0.265,1.194-0.575,1.541-0.927
		c0.348-0.353,0.558-0.691,0.629-1.014c0.072-0.324,0.058-0.632-0.043-0.924c-0.102-0.292-0.249-0.484-0.441-0.576
		c-0.192-0.092-0.369-0.11-0.53-0.054c-0.397,0.138-0.711,0.41-0.941,0.818c-0.231,0.408-0.361,0.851-0.39,1.329
		C44.879,47.639,44.938,48.089,45.084,48.509z"/>
	<path fill="#999999" d="M54.024,41.76l1.454-0.505l0.286,3.205c0.026,0.455,0.098,0.852,0.216,1.19
		c0.117,0.339,0.232,0.489,0.343,0.449c0.113-0.038,0.23-0.195,0.354-0.47c0.125-0.275,0.218-0.541,0.282-0.8l0.104-0.389
		l0.537,0.255c-0.06,0.492-0.186,0.967-0.382,1.426c-0.38,0.89-0.797,1.414-1.25,1.571c-0.534,0.186-0.953-0.159-1.257-1.033
		c-0.05-0.144-0.082-0.255-0.094-0.332c0.023,0.368-0.051,0.725-0.224,1.071c-0.323,0.672-0.796,1.116-1.421,1.333
		c-0.625,0.217-1.203,0.165-1.734-0.155c-0.532-0.319-0.915-0.818-1.15-1.496c-0.365-1.052-0.351-2.051,0.045-2.998
		c0.395-0.948,1.027-1.572,1.896-1.875c0.435-0.15,0.838-0.148,1.213,0.005c0.373,0.154,0.674,0.419,0.902,0.797L54.024,41.76z
		 M52.688,42.93c-0.36,0.125-0.642,0.402-0.845,0.83c-0.203,0.427-0.31,0.896-0.322,1.404c-0.01,0.508,0.059,0.977,0.207,1.404
		s0.356,0.742,0.624,0.942c0.269,0.202,0.588,0.239,0.956,0.11c0.37-0.127,0.643-0.421,0.818-0.88
		c0.326-0.879,0.328-1.789,0.002-2.729C53.802,43.071,53.321,42.711,52.688,42.93z"/>
	<path fill="#999999" d="M58.067,40.355c-0.091-2.325-0.051-4.314,0.122-5.964l1.189-0.302c0.004,0.234,0.013,0.798,0.023,1.693
		c0.036,1.969,0.089,3.321,0.155,4.056l1.463-0.507l0.076,0.703l-1.509,0.524c0.076,2.065,0.186,3.3,0.326,3.704
		c0.14,0.405,0.249,0.594,0.326,0.566c0.078-0.026,0.142-0.067,0.193-0.122c0.133-0.156,0.326-0.762,0.58-1.814l0.509,0.232
		c-0.138,0.946-0.36,1.689-0.668,2.226c-0.308,0.538-0.604,0.856-0.889,0.956c-0.286,0.1-0.539,0.069-0.758-0.09
		c-0.219-0.16-0.385-0.405-0.499-0.733c-0.29-0.834-0.491-2.304-0.602-4.41l-0.979,0.339l-0.076-0.703L58.067,40.355z"/>
	<path fill="#999999" d="M64.693,44.664c-0.265,0.092-0.5,0.078-0.709-0.042c-0.208-0.119-0.364-0.329-0.469-0.627
		c-0.104-0.299-0.172-0.732-0.205-1.299c-0.032-0.566-0.05-1.085-0.05-1.557c0-0.472-0.024-0.778-0.073-0.919
		c-0.05-0.142-0.118-0.197-0.204-0.167c-0.219,0.076-0.411,0.65-0.58,1.726l-0.759-0.168c0.347-1.947,0.903-3.054,1.667-3.319
		c0.521-0.181,0.903,0.078,1.146,0.773c0.07,0.204,0.121,0.551,0.151,1.042l0.035,2.264c-0.002,0.214,0.024,0.398,0.078,0.553
		c0.053,0.155,0.136,0.213,0.247,0.174c0.211-0.073,0.456-0.622,0.733-1.646l0.524,0.249c-0.106,0.773-0.323,1.438-0.648,1.994
		C65.252,44.249,64.957,44.572,64.693,44.664z M64.21,34.716c0.093,0.266,0.093,0.537,0,0.812c-0.092,0.275-0.282,0.462-0.567,0.562
		c-0.285,0.099-0.531,0.083-0.736-0.048c-0.207-0.131-0.357-0.335-0.452-0.611c-0.096-0.276-0.093-0.552,0.01-0.827
		c0.103-0.275,0.295-0.461,0.574-0.559c0.279-0.097,0.521-0.075,0.727,0.063C63.969,34.247,64.117,34.45,64.21,34.716z"/>
	<path fill="#999999" d="M69.689,41.692c0.527-0.183,0.993-0.566,1.396-1.147c0.404-0.583,0.676-1.194,0.814-1.835
		c0.14-0.642,0.138-1.17-0.007-1.583c-0.019,0.065-0.146,0.139-0.377,0.22c-0.234,0.081-0.45,0.065-0.648-0.046
		s-0.337-0.281-0.416-0.507c-0.078-0.227-0.068-0.458,0.032-0.691c0.099-0.233,0.292-0.4,0.578-0.499
		c0.788-0.274,1.342,0.046,1.658,0.959c0.144,0.415,0.188,0.93,0.13,1.547c-0.057,0.616-0.209,1.247-0.455,1.892
		c-0.245,0.646-0.64,1.253-1.183,1.825c-0.542,0.572-1.182,0.985-1.918,1.241c-0.735,0.255-1.235,0.004-1.498-0.752
		c-0.147-0.426-0.232-1.047-0.254-1.861c-0.022-0.814-0.068-1.322-0.139-1.526c-0.071-0.204-0.162-0.286-0.274-0.248
		c-0.168,0.058-0.351,0.601-0.552,1.628l-0.732-0.155c0.348-1.947,0.903-3.053,1.667-3.318c0.206-0.072,0.412-0.052,0.62,0.056
		c0.207,0.108,0.375,0.345,0.502,0.709c0.127,0.366,0.235,1.08,0.327,2.146s0.147,1.628,0.168,1.688
		C69.224,41.703,69.41,41.789,69.689,41.692z"/>
	<path fill="#999999" d="M76.663,40.508c-0.264,0.092-0.499,0.079-0.708-0.042c-0.208-0.119-0.364-0.327-0.469-0.627
		c-0.104-0.299-0.171-0.732-0.205-1.298c-0.033-0.566-0.05-1.085-0.05-1.557s-0.024-0.778-0.073-0.92
		c-0.05-0.141-0.118-0.196-0.204-0.167c-0.218,0.077-0.411,0.651-0.581,1.728l-0.758-0.168c0.348-1.947,0.903-3.054,1.667-3.319
		c0.521-0.181,0.903,0.077,1.146,0.774c0.071,0.204,0.121,0.551,0.151,1.041l0.035,2.264c-0.002,0.215,0.024,0.399,0.078,0.554
		c0.053,0.154,0.136,0.211,0.247,0.173c0.212-0.074,0.456-0.623,0.733-1.647l0.524,0.249c-0.106,0.775-0.324,1.439-0.649,1.994
		C77.222,40.094,76.928,40.417,76.663,40.508z M76.181,30.562c0.092,0.266,0.092,0.537,0,0.812
		c-0.092,0.275-0.282,0.463-0.567,0.561c-0.285,0.099-0.532,0.084-0.737-0.048c-0.205-0.131-0.356-0.334-0.451-0.611
		c-0.096-0.276-0.093-0.551,0.01-0.826c0.104-0.275,0.295-0.461,0.574-0.559s0.521-0.077,0.727,0.063
		C75.939,30.092,76.089,30.295,76.181,30.562z"/>
	<path fill="#999999" d="M78.729,33.185c-0.09-2.326-0.05-4.314,0.121-5.965l1.19-0.302c0.005,0.235,0.013,0.799,0.024,1.693
		c0.036,1.969,0.087,3.321,0.154,4.056l1.464-0.508l0.076,0.703l-1.509,0.525c0.076,2.065,0.186,3.299,0.325,3.704
		c0.141,0.405,0.25,0.592,0.327,0.566c0.077-0.027,0.142-0.067,0.191-0.122c0.135-0.157,0.328-0.762,0.582-1.815l0.509,0.232
		c-0.138,0.947-0.36,1.689-0.668,2.227c-0.308,0.538-0.604,0.855-0.891,0.955c-0.285,0.1-0.538,0.069-0.757-0.09
		s-0.385-0.404-0.499-0.732c-0.29-0.836-0.49-2.306-0.602-4.41l-0.978,0.339l-0.078-0.703L78.729,33.185z"/>
	<path fill="#999999" d="M82.891,34.347l-0.738-0.174c0.111-0.68,0.324-1.317,0.636-1.912c0.313-0.595,0.651-0.955,1.019-1.082
		c0.596-0.208,0.991-0.027,1.188,0.538c0.082,0.237,0.129,0.865,0.139,1.885c0.009,1.021,0.057,1.653,0.141,1.896
		c0.084,0.243,0.154,0.394,0.21,0.452c0.055,0.059,0.135,0.07,0.241,0.033c0.563-0.196,1.068-0.623,1.512-1.282
		c0.443-0.658,0.659-1.291,0.65-1.899l-0.046-2.238c-0.003-0.228,0.047-0.425,0.148-0.593s0.22-0.275,0.354-0.322
		c0.133-0.046,0.258-0.037,0.373,0.025c0.117,0.063,0.201,0.17,0.253,0.322c0.053,0.151,0.08,0.319,0.081,0.502l0.052,2.435
		c0.056,1.424-0.109,2.903-0.496,4.438c0.742-0.169,1.425-0.255,2.051-0.259l0.116,0.578c-0.921,0.113-1.716,0.268-2.386,0.463
		c-0.316,1.031-0.706,1.9-1.167,2.609c-0.46,0.708-0.924,1.145-1.393,1.307c-0.47,0.163-0.854,0.185-1.158,0.064
		c-0.302-0.12-0.514-0.354-0.635-0.702c-0.121-0.349-0.106-0.709,0.043-1.081s0.4-0.719,0.755-1.042
		c0.717-0.661,1.612-1.208,2.688-1.64c0.05-0.135,0.13-0.577,0.238-1.326c0.109-0.749,0.147-1.21,0.115-1.382
		c-0.757,1.367-1.555,2.197-2.393,2.488c-0.342,0.119-0.633,0.082-0.874-0.111c-0.241-0.192-0.424-0.469-0.549-0.832
		c-0.126-0.361-0.213-1.025-0.26-1.992c-0.047-0.968-0.091-1.512-0.133-1.633c-0.043-0.122-0.09-0.173-0.144-0.155
		c-0.052,0.019-0.104,0.053-0.155,0.104c-0.053,0.051-0.098,0.119-0.135,0.202c-0.037,0.083-0.071,0.161-0.102,0.234
		c-0.03,0.073-0.058,0.169-0.083,0.289c-0.024,0.119-0.043,0.209-0.056,0.272C82.937,34.089,82.903,34.262,82.891,34.347z
		 M87.354,38.511c-0.492,0.208-0.972,0.481-1.438,0.82c-0.9,0.651-1.28,1.181-1.14,1.588c0.085,0.244,0.27,0.315,0.555,0.216
		c0.286-0.1,0.676-0.48,1.17-1.141S87.279,38.839,87.354,38.511z"/>
</g>
<g>
	<path fill-rule="evenodd" clip-rule="evenodd" fill="#FFFFFF" d="M99.691,68.438l-3.279-2.23c-1.082-0.735-2.569-0.452-3.306,0.63
		l-1.971,2.898l0,0l-1.564,2.301l0,0l-32.053,47.143l-1.957,10.637l9.173-5.731l35.588-52.342
		C101.058,70.662,100.773,69.175,99.691,68.438z"/>
	<path fill-rule="evenodd" clip-rule="evenodd" fill="#FEFEFE" d="M99.483,68.23L96.204,66c-1.082-0.735-2.569-0.452-3.306,0.63
		l-1.971,2.898l0,0l-1.564,2.301l0,0l-32.053,47.144l-1.957,10.637l9.173-5.731l35.588-52.342
		C100.85,70.453,100.565,68.966,99.483,68.23z"/>
	<path fill-rule="evenodd" clip-rule="evenodd" fill="#FDFDFD" d="M99.274,68.022l-3.279-2.23c-1.082-0.735-2.569-0.452-3.306,0.63
		l-1.971,2.898l0,0l-1.564,2.301l0,0l-32.053,47.143L55.145,129.4l9.173-5.731l35.588-52.341
		C100.641,70.245,100.356,68.758,99.274,68.022z"/>
	<path fill-rule="evenodd" clip-rule="evenodd" fill="#FCFCFC" d="M99.066,67.813l-3.279-2.23c-1.082-0.735-2.569-0.452-3.306,0.63
		l-1.971,2.898l0,0l-1.564,2.301l0,0l-32.053,47.143l-1.957,10.637l9.173-5.731l35.588-52.342
		C100.433,70.037,100.148,68.55,99.066,67.813z"/>
	<path fill-rule="evenodd" clip-rule="evenodd" fill="#FBFBFB" d="M98.858,67.605l-3.279-2.23c-1.082-0.735-2.569-0.452-3.306,0.63
		l-1.971,2.898l0,0l-1.564,2.301l0,0l-32.053,47.144l-1.957,10.637l9.173-5.731l35.588-52.342
		C100.225,69.828,99.94,68.341,98.858,67.605z"/>
	<path fill-rule="evenodd" clip-rule="evenodd" fill="#FAFAFA" d="M98.649,67.397l-3.279-2.23c-1.082-0.735-2.569-0.452-3.306,0.63
		l-1.971,2.898l0,0l-1.564,2.301l0,0l-32.053,47.143l-1.957,10.637l9.173-5.731L99.28,70.703
		C100.016,69.62,99.731,68.133,98.649,67.397z"/>
	<path fill-rule="evenodd" clip-rule="evenodd" fill="#F9F9F9" d="M98.441,67.188l-3.279-2.23c-1.082-0.735-2.569-0.452-3.306,0.63
		l-1.971,2.898l0,0l-1.564,2.301l0,0l-32.053,47.143l-1.957,10.637l9.173-5.731l35.588-52.342
		C99.808,69.412,99.523,67.925,98.441,67.188z"/>
	<path fill-rule="evenodd" clip-rule="evenodd" fill="#F8F8F8" d="M98.233,66.98l-3.279-2.23c-1.082-0.735-2.569-0.452-3.306,0.63
		l-1.971,2.898l0,0l-1.564,2.301l0,0l-32.053,47.144l-1.957,10.637l9.173-5.731l35.588-52.342
		C99.6,69.203,99.315,67.716,98.233,66.98z"/>
	<path fill-rule="evenodd" clip-rule="evenodd" fill="#F7F7F7" d="M98.024,66.772l-3.279-2.23c-1.082-0.735-2.569-0.452-3.306,0.63
		l-1.971,2.898l0,0l-1.564,2.301l0,0l-32.053,47.143l-1.957,10.637l9.173-5.731l35.588-52.341
		C99.391,68.995,99.106,67.508,98.024,66.772z"/>
	<path fill-rule="evenodd" clip-rule="evenodd" fill="#F6F6F6" d="M97.816,66.563l-3.279-2.23c-1.082-0.735-2.569-0.452-3.306,0.63
		l-1.971,2.898l0,0l-1.564,2.301l0,0l-32.053,47.143l-1.957,10.637l9.173-5.731l35.588-52.342
		C99.183,68.787,98.898,67.3,97.816,66.563z"/>
	<path fill-rule="evenodd" clip-rule="evenodd" fill="#F5F5F5" d="M97.608,66.355l-3.28-2.23c-1.082-0.735-2.569-0.452-3.306,0.63
		l-1.97,2.898l0,0l-1.564,2.301l0,0l-32.053,47.144l-1.958,10.637l9.173-5.732l35.589-52.341
		C98.975,68.578,98.69,67.091,97.608,66.355z"/>
	<path fill-rule="evenodd" clip-rule="evenodd" fill="#F4F4F4" d="M97.399,66.146l-3.279-2.23c-1.082-0.735-2.569-0.452-3.306,0.63
		l-1.971,2.898l0,0l-1.564,2.301l0,0l-32.053,47.143l-1.957,10.637l9.173-5.731L98.03,69.452
		C98.766,68.37,98.481,66.883,97.399,66.146z"/>
	<path fill-rule="evenodd" clip-rule="evenodd" fill="#F3F3F3" d="M97.191,65.938l-3.279-2.23c-1.082-0.735-2.569-0.452-3.306,0.63
		l-1.971,2.898l0,0l-1.564,2.301l0,0l-32.053,47.143l-1.957,10.637l9.173-5.731l35.588-52.342
		C98.558,68.162,98.273,66.675,97.191,65.938z"/>
	<path fill-rule="evenodd" clip-rule="evenodd" fill="#F2F2F1" d="M96.983,65.73l-3.28-2.23c-1.082-0.735-2.569-0.452-3.306,0.63
		l-1.97,2.898l0,0l-1.564,2.301l0,0l-32.053,47.144l-1.958,10.637l9.173-5.732l35.589-52.341
		C98.35,67.953,98.065,66.466,96.983,65.73z"/>
	<path fill-rule="evenodd" clip-rule="evenodd" fill="#F1F1F0" d="M96.774,65.521l-3.279-2.23c-1.082-0.735-2.569-0.452-3.306,0.63
		l-1.971,2.898l0,0l-1.564,2.301l0,0l-32.053,47.143L52.645,126.9l9.173-5.731l35.588-52.342
		C98.141,67.745,97.856,66.258,96.774,65.521z"/>
	<path fill-rule="evenodd" clip-rule="evenodd" fill="#F0F0EF" d="M96.566,65.313l-3.279-2.23c-1.082-0.735-2.569-0.452-3.306,0.63
		l-1.971,2.898l0,0l-1.564,2.301l0,0l-32.053,47.143l-1.957,10.637l9.173-5.731l35.588-52.342
		C97.933,67.537,97.648,66.05,96.566,65.313z"/>
	<path fill-rule="evenodd" clip-rule="evenodd" fill="#EFEFEE" d="M96.358,65.105l-3.28-2.23c-1.082-0.735-2.569-0.452-3.306,0.63
		l-1.97,2.898l0,0l-1.564,2.301l0,0l-32.053,47.144l-1.958,10.637l9.173-5.732l35.589-52.341
		C97.725,67.328,97.44,65.841,96.358,65.105z"/>
	<path fill-rule="evenodd" clip-rule="evenodd" fill="#EEEEED" d="M96.149,64.896l-3.279-2.23c-1.082-0.735-2.569-0.452-3.306,0.63
		l-1.971,2.898l0,0l-1.564,2.301l0,0l-32.053,47.143l-1.957,10.637l9.173-5.731L96.78,68.202
		C97.516,67.12,97.231,65.633,96.149,64.896z"/>
	<path fill-rule="evenodd" clip-rule="evenodd" fill="#EDEDEC" d="M95.941,64.688l-3.279-2.23c-1.082-0.735-2.569-0.452-3.306,0.63
		l-1.971,2.898l0,0l-1.564,2.301l0,0l-32.053,47.143l-1.957,10.637l9.173-5.731l35.588-52.342
		C97.308,66.912,97.023,65.425,95.941,64.688z"/>
	<path fill-rule="evenodd" clip-rule="evenodd" fill="#ECECEB" d="M95.733,64.48l-3.28-2.23c-1.082-0.735-2.569-0.452-3.306,0.63
		l-1.97,2.898l0,0l-1.564,2.301l0,0L53.56,115.222l-1.957,10.638l9.173-5.732l35.589-52.341C97.1,66.703,96.815,65.216,95.733,64.48
		z"/>
	<path fill-rule="evenodd" clip-rule="evenodd" fill="#EBEBEA" d="M95.524,64.271l-3.279-2.23c-1.082-0.735-2.569-0.452-3.306,0.63
		l-1.971,2.898l0,0l-1.564,2.301l0,0l-32.053,47.143l-1.957,10.637l9.173-5.731l35.588-52.342
		C96.891,66.495,96.606,65.008,95.524,64.271z"/>
	<path fill-rule="evenodd" clip-rule="evenodd" fill="#EAEAE9" d="M95.316,64.063l-3.279-2.23c-1.082-0.735-2.569-0.452-3.306,0.63
		l-1.971,2.898l0,0l-1.564,2.301l0,0l-32.053,47.143l-1.957,10.637l9.173-5.731l35.588-52.342
		C96.683,66.287,96.398,64.8,95.316,64.063z"/>
	<path fill-rule="evenodd" clip-rule="evenodd" fill="#E9E9E8" d="M95.108,63.855l-3.28-2.23c-1.082-0.735-2.569-0.452-3.306,0.63
		l-1.97,2.898l0,0l-1.564,2.301l0,0l-32.054,47.143l-1.957,10.638l9.173-5.732l35.589-52.341
		C96.475,66.078,96.19,64.591,95.108,63.855z"/>
	<path fill-rule="evenodd" clip-rule="evenodd" fill="#E8E8E7" d="M94.899,63.646l-3.279-2.23c-1.082-0.735-2.569-0.452-3.306,0.63
		l-1.971,2.898l0,0l-1.564,2.301l0,0l-32.053,47.143l-1.957,10.637l9.173-5.731L95.53,66.952
		C96.266,65.87,95.981,64.383,94.899,63.646z"/>
	<path fill-rule="evenodd" clip-rule="evenodd" fill="#E7E7E6" d="M94.691,63.438l-3.279-2.23c-1.082-0.735-2.569-0.452-3.306,0.63
		l-1.971,2.898l0,0l-1.564,2.301l0,0l-32.053,47.143l-1.957,10.637l9.173-5.731l35.588-52.342
		C96.058,65.662,95.773,64.175,94.691,63.438z"/>
	<path fill-rule="evenodd" clip-rule="evenodd" fill="#E6E6E5" d="M94.483,63.23L91.203,61c-1.082-0.735-2.569-0.452-3.306,0.63
		l-1.97,2.898l0,0l-1.564,2.301l0,0L52.31,113.972l-1.957,10.638l9.173-5.732l35.589-52.341
		C95.85,65.453,95.565,63.966,94.483,63.23z"/>
	<path fill-rule="evenodd" clip-rule="evenodd" fill="#E5E4E4" d="M94.274,63.021l-3.279-2.23c-1.082-0.735-2.569-0.452-3.306,0.63
		l-1.971,2.898l0,0l-1.564,2.301l0,0l-32.053,47.143L50.145,124.4l9.173-5.731l35.588-52.342
		C95.641,65.245,95.356,63.758,94.274,63.021z"/>
	<path fill-rule="evenodd" clip-rule="evenodd" fill="#E4E3E3" d="M94.066,62.813l-3.28-2.23c-1.082-0.735-2.569-0.452-3.306,0.63
		l-1.97,2.898l0,0l-1.564,2.301l0,0l-32.053,47.144l-1.958,10.637l9.173-5.732l35.589-52.341
		C95.433,65.037,95.148,63.549,94.066,62.813z"/>
	<path fill-rule="evenodd" clip-rule="evenodd" fill="#E3E2E2" d="M93.858,62.605l-3.28-2.23c-1.082-0.735-2.569-0.452-3.306,0.63
		l-1.97,2.898l0,0l-1.564,2.301l0,0l-32.054,47.143l-1.957,10.638l9.173-5.732l35.589-52.341
		C95.225,64.828,94.94,63.341,93.858,62.605z"/>
	<path fill-rule="evenodd" clip-rule="evenodd" fill="#E2E1E1" d="M93.649,62.396l-3.279-2.23c-1.082-0.735-2.569-0.452-3.306,0.63
		l-1.971,2.898l0,0l-1.564,2.301l0,0l-32.053,47.143l-1.957,10.637l9.173-5.731L94.28,65.702
		C95.016,64.62,94.731,63.133,93.649,62.396z"/>
	<path fill-rule="evenodd" clip-rule="evenodd" fill="#E1E0E0" d="M93.441,62.188l-3.28-2.23c-1.082-0.735-2.569-0.452-3.306,0.63
		l-1.97,2.898l0,0l-1.564,2.301l0,0l-32.053,47.144l-1.958,10.637l9.173-5.732l35.589-52.341
		C94.808,64.412,94.523,62.924,93.441,62.188z"/>
	<path fill-rule="evenodd" clip-rule="evenodd" fill="#E0DFDF" d="M93.233,61.98l-3.28-2.23c-1.082-0.735-2.569-0.452-3.306,0.63
		l-1.97,2.898l0,0l-1.564,2.301l0,0L51.06,112.722l-1.957,10.638l9.173-5.732l35.589-52.341C94.6,64.203,94.315,62.716,93.233,61.98
		z"/>
	<path fill-rule="evenodd" clip-rule="evenodd" fill="#DFDEDE" d="M93.024,61.771l-3.279-2.23c-1.082-0.735-2.569-0.452-3.306,0.63
		l-1.971,2.898l0,0l-1.564,2.301l0,0l-32.053,47.143l-1.958,10.637l9.173-5.731l35.588-52.342
		C94.391,63.995,94.106,62.508,93.024,61.771z"/>
	<path fill-rule="evenodd" clip-rule="evenodd" fill="#DEDDDD" d="M92.816,61.563l-3.28-2.23c-1.082-0.735-2.569-0.452-3.306,0.63
		l-1.97,2.898l0,0l-1.564,2.301l0,0l-32.053,47.144l-1.958,10.637l9.172-5.732l35.589-52.341
		C94.183,63.787,93.898,62.299,92.816,61.563z"/>
	<path fill-rule="evenodd" clip-rule="evenodd" fill="#DDDCDC" d="M92.608,61.355l-3.28-2.23c-1.082-0.735-2.569-0.452-3.306,0.63
		l-1.97,2.898l0,0l-1.564,2.301l0,0l-32.054,47.143l-1.957,10.638l9.173-5.732l35.589-52.341
		C93.975,63.578,93.69,62.091,92.608,61.355z"/>
	<path fill-rule="evenodd" clip-rule="evenodd" fill="#DCDBDB" d="M92.399,61.146l-3.279-2.23c-1.082-0.735-2.569-0.452-3.306,0.63
		l-1.971,2.898l0,0l-1.564,2.301l0,0l-32.053,47.143l-1.958,10.637l9.173-5.731L93.03,64.452
		C93.766,63.37,93.481,61.883,92.399,61.146z"/>
	<path fill-rule="evenodd" clip-rule="evenodd" fill="#DBDADA" d="M92.191,60.938l-3.28-2.23c-1.082-0.735-2.569-0.452-3.306,0.63
		l-1.97,2.898l0,0l-1.564,2.301l0,0l-32.053,47.144l-1.958,10.637l9.172-5.732l35.589-52.341
		C93.558,63.162,93.273,61.674,92.191,60.938z"/>
	<path fill-rule="evenodd" clip-rule="evenodd" fill="#DAD9D9" d="M91.983,60.73l-3.28-2.23c-1.082-0.735-2.569-0.452-3.306,0.63
		l-1.97,2.898l0,0l-1.564,2.301l0,0L49.81,111.472l-1.957,10.638l9.173-5.732l35.589-52.341
		C93.35,62.953,93.065,61.466,91.983,60.73z"/>
	<path fill-rule="evenodd" clip-rule="evenodd" fill="#D9D8D8" d="M91.774,60.521l-3.279-2.23c-1.082-0.735-2.569-0.452-3.306,0.63
		l-1.971,2.898l0,0l-1.564,2.301l0,0l-32.053,47.143L47.644,121.9l9.173-5.731l35.588-52.342
		C93.141,62.745,92.856,61.258,91.774,60.521z"/>
	<path fill-rule="evenodd" clip-rule="evenodd" fill="#D8D7D6" d="M91.566,60.313l-3.28-2.23c-1.082-0.735-2.569-0.452-3.306,0.63
		l-1.97,2.898l0,0l-1.564,2.301l0,0l-32.053,47.144l-1.958,10.637l9.173-5.732l35.589-52.341
		C92.933,62.537,92.648,61.049,91.566,60.313z"/>
	<path fill-rule="evenodd" clip-rule="evenodd" fill="#D7D6D5" d="M91.358,60.105l-3.28-2.23c-1.082-0.735-2.569-0.452-3.306,0.63
		l-1.97,2.898l0,0l-1.564,2.301l0,0l-32.054,47.143l-1.957,10.637l9.173-5.732l35.589-52.341
		C92.725,62.328,92.44,60.841,91.358,60.105z"/>
	<path fill-rule="evenodd" clip-rule="evenodd" fill="#D6D5D4" d="M91.149,59.896l-3.279-2.23c-1.082-0.735-2.569-0.452-3.306,0.63
		l-1.971,2.898l0,0l-1.564,2.301l0,0l-32.053,47.143l-1.958,10.637l9.173-5.731L91.78,63.202
		C92.516,62.12,92.231,60.633,91.149,59.896z"/>
	<path fill-rule="evenodd" clip-rule="evenodd" fill="#D5D4D3" d="M90.941,59.688l-3.28-2.23c-1.082-0.735-2.569-0.452-3.306,0.63
		l-1.97,2.898l0,0l-1.564,2.301l0,0L48.768,110.43l-1.958,10.637l9.173-5.732l35.589-52.341
		C92.308,61.912,92.023,60.424,90.941,59.688z"/>
	<path fill-rule="evenodd" clip-rule="evenodd" fill="#D4D3D2" d="M90.733,59.479l-3.28-2.23c-1.082-0.735-2.569-0.452-3.306,0.63
		l-1.97,2.898l0,0l-1.564,2.301l0,0L48.56,110.222l-1.957,10.638l9.173-5.732l35.589-52.342
		C92.1,61.703,91.815,60.216,90.733,59.479z"/>
	<path fill-rule="evenodd" clip-rule="evenodd" fill="#D3D2D1" d="M90.524,59.271l-3.28-2.23c-1.082-0.735-2.569-0.452-3.306,0.63
		l-1.97,2.898l0,0l-1.564,2.301l0,0l-32.053,47.143l-1.958,10.637l9.172-5.732l35.589-52.341
		C91.891,61.495,91.606,60.008,90.524,59.271z"/>
	<path fill-rule="evenodd" clip-rule="evenodd" fill="#D2D1D0" d="M90.316,59.063l-3.28-2.23c-1.082-0.735-2.569-0.452-3.306,0.63
		l-1.97,2.898l0,0l-1.564,2.301l0,0l-32.053,47.143l-1.958,10.637l9.173-5.732l35.589-52.341
		C91.683,61.287,91.398,59.799,90.316,59.063z"/>
	<path fill-rule="evenodd" clip-rule="evenodd" fill="#D1D0CF" d="M90.108,58.854l-3.28-2.23c-1.082-0.735-2.569-0.452-3.306,0.63
		l-1.97,2.898l0,0l-1.564,2.301l0,0l-32.054,47.143l-1.957,10.638l9.173-5.732L90.739,62.16
		C91.475,61.078,91.19,59.591,90.108,58.854z"/>
	<path fill-rule="evenodd" clip-rule="evenodd" fill="#D0CFCE" d="M89.899,58.646l-3.28-2.23c-1.082-0.735-2.569-0.452-3.306,0.63
		l-1.97,2.898l0,0l-1.564,2.301l0,0l-32.053,47.143l-1.958,10.637l9.172-5.732L90.53,61.952
		C91.266,60.87,90.981,59.383,89.899,58.646z"/>
	<path fill-rule="evenodd" clip-rule="evenodd" fill="#CFCECD" d="M89.691,58.438l-3.28-2.23c-1.082-0.735-2.569-0.452-3.306,0.63
		l-1.97,2.898l0,0l-1.564,2.301l0,0L47.518,109.18l-1.958,10.637l9.173-5.732l35.589-52.341
		C91.058,60.662,90.773,59.174,89.691,58.438z"/>
	<path fill-rule="evenodd" clip-rule="evenodd" fill="#CECDCC" d="M89.483,58.229L86.203,56c-1.082-0.735-2.569-0.452-3.306,0.63
		l-1.97,2.898l0,0l-1.564,2.301l0,0L47.31,108.972l-1.958,10.638l9.173-5.732l35.589-52.342
		C90.85,60.453,90.565,58.966,89.483,58.229z"/>
	<path fill-rule="evenodd" clip-rule="evenodd" fill="#CDCCCB" d="M89.274,58.021l-3.28-2.23c-1.082-0.735-2.569-0.452-3.306,0.63
		l-1.97,2.898l0,0l-1.564,2.301l0,0l-32.053,47.143L45.144,119.4l9.172-5.732l35.589-52.341
		C90.641,60.245,90.356,58.758,89.274,58.021z"/>
	<path fill-rule="evenodd" clip-rule="evenodd" fill="#CCCBCA" d="M89.066,57.813l-3.28-2.23c-1.082-0.735-2.569-0.452-3.306,0.63
		l-1.97,2.898l0,0l-1.564,2.301l0,0l-32.053,47.143l-1.958,10.637l9.173-5.732l35.589-52.341
		C90.433,60.037,90.148,58.549,89.066,57.813z"/>
</g>
<g>
	<path fill-rule="evenodd" clip-rule="evenodd" fill="#34A5A8" d="M54.108,113.373l-9.173,5.732l1.958-10.638L82.48,56.126
		c0.736-1.082,2.224-1.366,3.306-0.63l3.28,2.23c1.082,0.736,1.366,2.224,0.631,3.306L54.108,113.373z"/>
	<path fill-rule="evenodd" clip-rule="evenodd" fill="#FFFFFF" d="M54.108,113.373l-9.173,5.732l1.958-10.638l33.618-49.444
		c2.834,1.295,5.21,2.938,7.216,4.905L54.108,113.373z"/>
	<path fill-rule="evenodd" clip-rule="evenodd" fill="#34A5A8" d="M54.108,113.373l-9.173,5.732l1.958-10.638l32.053-47.143
		c2.868,1.275,5.242,2.918,7.215,4.907L54.108,113.373z"/>
	<path fill-rule="evenodd" clip-rule="evenodd" fill="#FED4A4" d="M54.108,113.373l-9.173,5.732l1.958-10.638
		c1.291,0.566,2.579,1.274,3.83,2.125C51.976,111.444,53.106,112.381,54.108,113.373z"/>
	<path fill-rule="evenodd" clip-rule="evenodd" fill="#4D4D4D" d="M47.965,117.211l-3.03,1.895l0.647-3.515
		c0.426,0.187,0.851,0.421,1.265,0.703C47.261,116.574,47.635,116.884,47.965,117.211z"/>
</g>
<g>
	<rect x="139.985" y="22.14" fill-rule="evenodd" clip-rule="evenodd" fill="#315263" width="22.065" height="136.15"/>
	<g>
		<rect x="139.985" y="29.411" fill-rule="evenodd" clip-rule="evenodd" fill="#FFFFFF" width="4.764" height="121.608"/>
		<rect x="139.985" y="33.674" fill-rule="evenodd" clip-rule="evenodd" fill="#FFFFFF" width="11.032" height="2.591"/>
		<rect x="139.985" y="42.173" fill-rule="evenodd" clip-rule="evenodd" fill="#FFFFFF" width="11.032" height="2.591"/>
		<rect x="139.985" y="50.673" fill-rule="evenodd" clip-rule="evenodd" fill="#FFFFFF" width="11.032" height="2.591"/>
		<rect x="139.985" y="59.172" fill-rule="evenodd" clip-rule="evenodd" fill="#FFFFFF" width="11.032" height="2.591"/>
		<rect x="139.985" y="67.671" fill-rule="evenodd" clip-rule="evenodd" fill="#FFFFFF" width="11.032" height="2.592"/>
		<rect x="139.985" y="76.169" fill-rule="evenodd" clip-rule="evenodd" fill="#FFFFFF" width="11.032" height="2.592"/>
		<rect x="139.985" y="84.67" fill-rule="evenodd" clip-rule="evenodd" fill="#FFFFFF" width="11.032" height="2.59"/>
		<rect x="139.985" y="93.169" fill-rule="evenodd" clip-rule="evenodd" fill="#FFFFFF" width="11.032" height="2.59"/>
		<rect x="139.985" y="101.668" fill-rule="evenodd" clip-rule="evenodd" fill="#FFFFFF" width="11.032" height="2.592"/>
		<rect x="139.985" y="110.167" fill-rule="evenodd" clip-rule="evenodd" fill="#FFFFFF" width="11.032" height="2.592"/>
		<rect x="139.985" y="118.667" fill-rule="evenodd" clip-rule="evenodd" fill="#FFFFFF" width="11.032" height="2.592"/>
		<rect x="139.985" y="127.168" fill-rule="evenodd" clip-rule="evenodd" fill="#FFFFFF" width="11.032" height="2.59"/>
		<rect x="139.985" y="135.667" fill-rule="evenodd" clip-rule="evenodd" fill="#FFFFFF" width="11.032" height="2.59"/>
		<rect x="139.985" y="144.166" fill-rule="evenodd" clip-rule="evenodd" fill="#FFFFFF" width="11.032" height="2.592"/>
	</g>
</g>
</svg>
